<?xml version="1.0" standalone="no"?>
<!DOCTYPE svg PUBLIC "-//W3C//DTD SVG 20010904//EN"
 "http://www.w3.org/TR/2001/REC-SVG-20010904/DTD/svg10.dtd">
<svg version="1.0" xmlns="http://www.w3.org/2000/svg"
 width="198.000000pt" height="180.000000pt" viewBox="0 0 198.000000 180.000000"
 preserveAspectRatio="xMidYMid meet">
<metadata>
Created by potrace 1.10, written by Peter Selinger 2001-2011
</metadata>
<g transform="translate(0.000000,180.000000) scale(0.100000,-0.100000)"
fill="#000000" stroke="none">
<path d="M984 1626 c-106 -26 -202 -81 -286 -166 -71 -71 -79 -82 -76 -112 3
-29 7 -33 33 -36 25 -2 35 5 60 39 67 92 197 169 316 189 83 14 99 23 99 54 0
47 -44 57 -146 32z m102 -31 c9 -9 14 -19 10 -22 -3 -4 -12 1 -19 10 -11 15
-13 14 -27 -1 -13 -14 -12 -15 3 -9 10 3 17 2 17 -4 0 -7 -10 -9 -27 -5 -14 4
-29 3 -32 -2 -3 -5 -19 -12 -36 -16 -23 -5 -27 -4 -15 5 13 9 12 10 -3 5 -10
-3 -24 -6 -30 -6 -7 0 -6 -4 3 -10 12 -7 8 -10 -15 -10 -23 0 -27 3 -15 10 8
5 10 10 4 10 -6 0 -18 -8 -25 -17 -8 -10 -9 -14 -2 -10 6 4 14 3 18 -3 3 -5
-1 -10 -10 -10 -9 0 -28 -9 -43 -20 -17 -14 -28 -17 -32 -9 -5 6 -9 2 -13 -11
-4 -15 -10 -19 -19 -14 -7 4 -10 4 -6 -1 8 -8 -70 -100 -85 -100 -4 0 -11 -6
-16 -13 -7 -11 -9 -10 -14 3 -4 9 -3 14 2 11 10 -6 25 24 16 32 -3 3 -5 -1 -5
-8 0 -7 -3 -10 -7 -7 -3 4 -13 2 -22 -5 -18 -13 9 17 70 80 23 23 48 42 57 42
8 0 12 3 9 7 -10 10 31 35 45 27 6 -4 8 -3 4 4 -3 6 -2 13 4 17 5 3 10 1 10
-6 0 -7 3 -9 8 -5 4 4 7 13 7 19 0 8 23 13 63 15 34 2 62 7 62 12 0 5 -17 6
-37 3 -41 -6 -43 2 -3 11 14 3 41 10 60 14 44 11 66 8 86 -13z"/>
<path d="M1244 1588 c-16 -36 -6 -56 34 -69 20 -6 58 -22 84 -35 62 -31 85
-31 100 2 11 24 9 29 -19 54 -33 30 -129 70 -167 70 -14 0 -26 -8 -32 -22z
m113 -30 c7 -1 10 -5 7 -9 -2 -4 9 -10 25 -14 36 -8 48 -30 16 -30 -14 0 -21
5 -18 13 3 6 -2 12 -12 12 -10 0 -13 -4 -9 -12 5 -9 3 -9 -9 1 -9 7 -14 17
-11 22 3 5 -2 9 -11 9 -9 0 -13 -5 -10 -10 4 -6 -5 -5 -19 2 -48 21 -31 27 51
16z"/>
<path d="M1025 1446 c-81 -21 -145 -56 -205 -115 -72 -71 -96 -115 -81 -147
14 -31 56 -32 72 -2 23 42 104 120 150 144 26 13 66 27 90 30 49 8 81 35 72
61 -6 18 -32 44 -42 42 -3 0 -28 -6 -56 -13z m40 -39 c-23 -13 -25 -14 -67
-17 -32 -2 -32 -2 -8 -10 24 -8 23 -8 -8 -9 -22 -1 -31 -5 -26 -13 5 -7 3 -8
-6 -3 -7 4 -16 2 -20 -5 -6 -10 -12 -9 -26 5 -17 17 -17 17 5 10 19 -6 23 -4
18 8 -4 10 0 13 12 10 10 -2 23 3 30 11 9 11 22 14 39 9 17 -4 23 -2 18 5 -4
6 5 12 21 14 36 4 43 -1 18 -15z m-154 -73 c11 -14 10 -15 -7 -12 -12 2 -18
-2 -16 -10 1 -8 -2 -11 -8 -7 -5 3 -10 0 -10 -8 0 -8 -7 -20 -15 -27 -12 -10
-15 -10 -15 1 0 8 -6 5 -14 -6 -8 -11 -12 -23 -10 -26 2 -4 -6 -14 -19 -22
-21 -13 -23 -13 -23 4 0 10 2 16 5 14 2 -3 19 15 39 40 19 24 43 47 53 50 11
4 17 11 14 16 -10 15 12 10 26 -7z"/>
<path d="M1235 1416 c-22 -33 -11 -51 51 -85 62 -36 125 -110 150 -178 23 -63
36 -77 67 -69 36 9 39 39 11 108 -36 86 -93 159 -165 207 -70 47 -92 50 -114
17z m58 -41 c-3 -8 0 -15 6 -15 6 0 11 5 11 10 0 6 5 10 12 10 8 0 5 -7 -5
-17 -17 -17 -19 -17 -32 1 -8 10 -12 23 -9 28 9 14 24 -1 17 -17z m104 -61 c8
3 15 -4 19 -19 3 -14 10 -22 15 -19 5 3 6 -1 3 -9 -3 -8 3 -20 12 -28 16 -13
17 -12 10 6 -4 11 -4 16 0 12 9 -8 33 -71 41 -104 3 -14 1 -23 -6 -23 -7 0
-10 4 -7 9 3 5 -2 12 -11 15 -14 6 -15 9 -4 15 8 5 10 14 6 21 -6 9 -10 9 -17
-1 -8 -11 -9 -11 -6 1 5 16 -2 25 -43 68 -15 15 -29 37 -33 50 -4 12 -12 22
-17 22 -6 0 -7 -4 -4 -10 3 -6 -1 -7 -10 -4 -14 6 -14 8 2 20 16 11 19 10 27
-7 5 -11 15 -18 23 -15z"/>
<path d="M1527 1422 c-24 -26 -21 -40 13 -92 91 -135 124 -316 84 -465 -9 -33
-17 -78 -18 -100 -1 -38 1 -40 31 -43 29 -3 34 1 47 33 23 55 46 177 46 245 0
135 -67 331 -139 408 -34 37 -42 39 -64 14z m66 -45 c7 4 6 -1 -2 -10 -12 -15
-12 -17 3 -11 11 4 16 2 14 -7 -2 -8 3 -13 11 -11 11 2 12 0 3 -11 -10 -11 -9
-17 1 -26 8 -6 17 -7 22 -3 4 4 2 -3 -4 -16 -7 -12 -9 -26 -6 -31 3 -5 -1 -11
-7 -14 -7 -3 -3 -4 9 -4 17 1 20 4 11 15 -8 9 -8 16 2 25 10 9 11 9 5 -2 -4
-7 -3 -16 4 -20 6 -4 13 -23 14 -42 1 -19 7 -37 12 -41 6 -5 5 -8 -2 -8 -7 0
-13 -8 -13 -17 0 -14 2 -15 9 -4 15 24 23 -6 27 -112 4 -97 -8 -173 -26 -162
-4 3 -10 -4 -13 -16 -4 -16 -3 -18 9 -8 11 9 14 8 14 -5 0 -9 -5 -16 -10 -16
-6 0 -10 -6 -9 -12 1 -7 1 -22 0 -33 -1 -17 -3 -18 -11 -5 -8 13 -10 12 -10
-2 0 -10 -6 -18 -12 -18 -9 0 -8 -4 2 -11 11 -8 12 -10 1 -7 -8 2 -15 16 -17
31 -2 17 1 25 8 21 6 -4 8 1 3 16 -4 12 -3 20 1 17 12 -7 14 18 18 205 2 104
0 155 -7 151 -6 -4 -7 4 -3 22 6 25 5 27 -8 16 -17 -14 -18 -12 -19 45 -1 13
-6 20 -13 17 -9 -3 -11 2 -7 18 4 13 2 20 -3 16 -6 -3 -16 3 -23 15 -7 11 -8
17 -2 14 7 -4 8 -1 5 8 -3 9 -10 13 -15 10 -5 -3 -13 5 -18 18 -10 25 -5 42
10 33 5 -4 9 0 10 7 0 7 5 1 11 -15 6 -16 14 -24 21 -20z"/>
<path d="M1062 1258 c-17 -17 -15 -65 4 -72 9 -3 35 -6 58 -6 30 0 55 -8 80
-25 41 -28 56 -31 74 -13 48 48 -53 128 -162 128 -23 0 -47 -5 -54 -12z m87
-24 c4 3 8 -1 8 -9 0 -8 -6 -15 -14 -15 -7 0 -13 6 -13 13 0 9 -2 9 -8 -1 -5
-7 -16 -10 -26 -6 -13 5 -14 9 -5 20 8 10 16 11 30 3 11 -5 23 -8 28 -5z"/>
<path d="M558 1229 c-22 -12 -23 -52 -2 -73 20 -21 30 -20 54 4 24 24 24 29 4
58 -17 24 -30 27 -56 11z"/>
<path d="M929 1178 c-66 -70 -86 -220 -40 -308 51 -98 118 -139 143 -85 10 22
7 29 -25 64 -50 56 -60 78 -60 141 -1 54 19 107 49 138 27 26 13 72 -22 72
-13 0 -33 -10 -45 -22z m58 -13 c4 -4 2 -5 -4 -1 -8 4 -13 1 -13 -9 0 -9 5
-13 11 -9 6 3 3 -5 -6 -20 -10 -14 -23 -26 -30 -26 -8 0 -12 -10 -11 -25 2
-13 0 -23 -4 -20 -9 6 -1 -103 12 -142 5 -18 25 -47 44 -65 19 -18 34 -37 33
-43 0 -5 -3 -4 -6 3 -2 7 -14 17 -26 24 -22 11 -22 11 -3 -11 16 -17 17 -24 7
-34 -10 -9 -11 -8 -5 7 5 13 4 17 -4 12 -7 -4 -12 -2 -12 4 0 6 -5 8 -12 4 -7
-5 -8 -3 -3 6 6 10 4 12 -7 8 -12 -5 -15 1 -12 35 3 36 2 38 -10 22 -17 -24
-31 -4 -28 43 2 20 -1 31 -7 28 -11 -7 -6 72 5 83 4 3 4 -4 1 -16 -3 -13 -1
-23 3 -23 5 0 11 -10 13 -22 3 -13 4 -4 2 18 -2 23 -9 52 -15 65 -10 19 -10
24 4 34 8 7 12 16 8 20 -4 5 -1 5 6 1 12 -7 20 5 27 41 2 10 4 19 4 20 2 4 32
-4 38 -12z"/>
<path d="M1279 1079 c-17 -33 4 -71 38 -67 36 4 50 29 35 62 -15 33 -56 35
-73 5z"/>
<path d="M694 1043 c-30 -31 -1 -212 39 -237 27 -17 52 5 51 45 -8 180 -38
244 -90 192z m42 -87 c1 -32 -2 -58 -8 -62 -6 -4 -8 1 -3 15 4 12 2 28 -5 36
-7 9 -8 20 -2 32 5 10 7 25 4 33 -2 8 -1 12 3 8 4 -4 9 -32 11 -62z"/>
<path d="M528 1039 c-25 -14 -24 -113 2 -213 57 -224 232 -407 440 -461 93
-24 266 -18 286 9 16 23 17 35 5 55 -7 11 -38 14 -133 15 -100 1 -134 6 -181
23 -200 75 -340 273 -351 497 -2 43 -8 62 -21 72 -22 16 -25 17 -47 3z m46
-129 c-4 -17 0 -46 9 -69 12 -30 13 -41 4 -45 -9 -3 -9 -7 -1 -13 15 -11 34
-49 33 -65 0 -7 -5 -1 -11 15 -5 15 -13 25 -18 22 -11 -7 -22 43 -14 67 4 14
2 18 -5 14 -7 -5 -9 -1 -5 8 3 9 1 16 -5 16 -7 0 -9 10 -5 26 5 19 4 25 -5 20
-6 -4 -11 -2 -11 3 0 6 7 11 15 11 8 0 15 5 15 10 0 6 2 10 5 10 2 0 2 -13 -1
-30z m81 -258 c-3 -9 0 -12 9 -9 10 4 13 1 9 -9 -3 -7 0 -14 6 -14 6 0 11 -5
11 -11 0 -14 27 -41 33 -31 2 4 2 1 0 -7 -2 -8 2 -11 12 -7 9 3 14 2 11 -3 -5
-8 17 -23 37 -25 4 -1 6 -4 5 -8 -5 -13 57 -59 74 -54 11 2 15 -1 11 -11 -4
-9 0 -14 8 -13 29 5 50 0 44 -10 -4 -6 6 -10 24 -10 16 0 32 -4 35 -8 3 -5 54
-10 113 -11 59 -1 110 -4 112 -7 12 -11 -16 -17 -81 -17 -138 1 -233 16 -221
36 4 6 -2 8 -15 5 -12 -4 -22 -2 -22 3 0 13 -62 49 -72 42 -5 -3 -12 5 -15 17
-4 14 -11 19 -22 15 -8 -3 -13 -3 -9 0 7 7 -53 69 -67 70 -5 0 -10 7 -10 16 0
8 -8 23 -18 33 -10 10 -16 25 -12 33 3 10 1 13 -8 10 -8 -3 -14 3 -14 15 -2
19 -1 19 18 2 11 -10 17 -24 14 -32z"/>
<path d="M1483 978 c-5 -7 -17 -42 -27 -78 -45 -168 -175 -274 -336 -275 -83
0 -134 16 -208 67 -48 33 -68 31 -83 -9 -12 -33 21 -67 106 -109 207 -102 450
-18 564 196 45 84 64 171 44 200 -16 23 -46 26 -60 8z m43 -29 c9 0 8 -59 -2
-68 -5 -6 -24 18 -24 32 0 4 5 6 11 5 6 -2 13 5 14 15 2 9 -1 15 -6 11 -5 -3
-7 -10 -4 -15 3 -5 -1 -6 -9 -3 -20 8 -21 -15 -2 -51 14 -26 12 -32 -21 -97
-45 -84 -158 -192 -177 -167 -6 8 -18 15 -26 17 -11 2 -11 -1 3 -11 9 -8 17
-17 17 -19 0 -17 -122 -46 -185 -45 -51 0 -63 3 -45 8 17 6 9 7 -25 4 l-50 -4
40 13 40 14 -46 -5 c-51 -6 -133 22 -122 40 4 6 0 8 -9 5 -8 -4 -20 -3 -27 2
-9 5 -4 9 13 14 16 4 24 11 20 17 -4 8 -8 8 -13 1 -4 -7 -12 -8 -21 -2 -11 7
-12 12 -3 21 16 16 64 -17 56 -39 -3 -12 -2 -13 4 -5 7 10 21 8 63 -8 77 -30
177 -30 255 0 33 12 67 24 75 26 8 1 14 8 12 15 -1 6 2 9 7 6 5 -3 11 1 15 9
8 22 25 18 21 -4 -3 -14 1 -18 12 -14 12 5 12 7 1 14 -7 5 -9 9 -4 9 5 0 2 8
-5 17 -8 9 -9 14 -3 10 6 -3 17 5 24 21 8 17 14 22 17 14 3 -7 -2 -21 -11 -31
-15 -17 -15 -19 -1 -25 9 -3 13 -2 10 4 -10 17 6 34 17 19 7 -11 8 -10 4 4 -4
12 -2 16 5 11 6 -3 4 4 -5 17 -14 22 -14 27 5 57 22 33 35 43 26 18 -8 -20 23
-14 35 7 6 11 5 17 -2 17 -5 0 -10 -8 -10 -17 0 -15 -2 -14 -14 3 -12 15 -12
20 -1 22 9 2 11 14 8 43 -5 33 -3 39 13 40 11 0 14 3 6 6 -6 2 -9 9 -6 15 4 7
9 6 14 -2 4 -6 11 -12 16 -11z"/>
<path d="M1191 593 c-1 -7 -10 -13 -22 -13 -11 0 -17 -5 -14 -10 4 -6 11 -8
16 -4 5 3 24 7 41 9 17 3 33 7 37 11 3 4 -6 4 -21 0 -17 -4 -28 -2 -31 7 -4 9
-6 9 -6 0z"/>
<path d="M1294 952 c-6 -4 -18 -21 -27 -39 -21 -41 -60 -70 -111 -85 -22 -6
-46 -18 -52 -25 -15 -18 -6 -51 16 -63 23 -12 96 9 140 40 44 31 90 98 90 130
0 40 -28 61 -56 42z m10 -57 c-8 -13 -12 -30 -8 -36 4 -8 3 -9 -4 -5 -7 4 -12
1 -12 -9 0 -8 -12 -20 -27 -26 -16 -5 -32 -16 -38 -22 -8 -10 -15 -10 -35 1
-23 13 -23 13 -2 9 12 -3 22 -1 22 4 0 5 3 8 8 7 4 -1 20 2 35 7 21 6 25 10
15 16 -8 6 -9 9 -1 9 6 0 20 16 32 35 11 19 23 35 26 35 3 0 -2 -11 -11 -25z"/>
<path d="M1474 582 c-28 -26 -63 -57 -78 -69 -31 -26 -32 -33 -7 -64 17 -21
20 -22 51 -9 47 19 140 115 140 143 0 27 -17 47 -39 47 -9 0 -39 -22 -67 -48z
m34 -34 c10 -12 10 -18 1 -24 -8 -5 -10 -3 -5 7 4 8 0 5 -8 -5 -9 -11 -16 -24
-16 -29 0 -4 -4 -6 -9 -3 -12 8 -41 -4 -41 -16 0 -5 5 -6 12 -2 7 4 8 3 4 -5
-6 -9 -11 -9 -23 0 -12 11 -11 14 9 25 13 7 22 15 20 19 -2 4 -1 9 2 13 3 3 6
-1 6 -9 0 -8 8 1 17 19 8 18 16 31 17 30 1 -2 7 -10 14 -20z"/>
</g>
</svg>
