<?xml version="1.0" encoding="UTF-8"?>
<!DOCTYPE svg PUBLIC "-//W3C//DTD SVG 1.1//EN" "http://www.w3.org/Graphics/SVG/1.1/DTD/svg11.dtd">
<svg xmlns="http://www.w3.org/2000/svg" version="1.1" width="180px" height="180px" style="shape-rendering:geometricPrecision; text-rendering:geometricPrecision; image-rendering:optimizeQuality; fill-rule:evenodd; clip-rule:evenodd" xmlns:xlink="http://www.w3.org/1999/xlink">
<g><path style="opacity:1" fill="#0c121c" d="M -0.5,-0.5 C 59.5,-0.5 119.5,-0.5 179.5,-0.5C 179.5,59.5 179.5,119.5 179.5,179.5C 119.5,179.5 59.5,179.5 -0.5,179.5C -0.5,119.5 -0.5,59.5 -0.5,-0.5 Z"/></g>
<g><path style="opacity:1" fill="#140d21" d="M 107.5,54.5 C 116.496,55.0509 125.496,55.7176 134.5,56.5C 133.975,57.1924 133.308,57.6924 132.5,58C 120.171,58.4999 107.838,58.6665 95.5,58.5C 95.5,57.5 95.5,56.5 95.5,55.5C 99.7016,55.8168 103.702,55.4834 107.5,54.5 Z"/></g>
<g><path style="opacity:1" fill="#001e01" d="M 140.5,60.5 C 125.833,60.5 111.167,60.5 96.5,60.5C 109.705,59.8164 123.039,59.1498 136.5,58.5C 138.026,58.9943 139.359,59.661 140.5,60.5 Z"/></g>
<g><path style="opacity:1" fill="#fbfcfc" d="M 59.5,60.5 C 59.5,67.8333 59.5,75.1667 59.5,82.5C 64.5,82.5 69.5,82.5 74.5,82.5C 74.5,75.1667 74.5,67.8333 74.5,60.5C 79.1667,60.5 83.8333,60.5 88.5,60.5C 88.5,79.8333 88.5,99.1667 88.5,118.5C 83.8333,118.5 79.1667,118.5 74.5,118.5C 74.5,111.5 74.5,104.5 74.5,97.5C 69.6946,96.5128 64.6946,96.1795 59.5,96.5C 59.5,103.833 59.5,111.167 59.5,118.5C 55.03,119.486 50.3633,119.819 45.5,119.5C 45.5,99.8333 45.5,80.1667 45.5,60.5C 50.1667,60.5 54.8333,60.5 59.5,60.5 Z"/></g>
<g><path style="opacity:1" fill="#4e5053" d="M 59.5,60.5 C 60.4912,67.3134 60.8245,74.3134 60.5,81.5C 64.8333,81.5 69.1667,81.5 73.5,81.5C 73.1755,74.3134 73.5088,67.3134 74.5,60.5C 74.5,67.8333 74.5,75.1667 74.5,82.5C 69.5,82.5 64.5,82.5 59.5,82.5C 59.5,75.1667 59.5,67.8333 59.5,60.5 Z"/></g>
<g><path style="opacity:1" fill="#93979b" d="M 88.5,60.5 C 89.4971,79.9929 89.8304,99.6596 89.5,119.5C 84.3054,119.821 79.3054,119.487 74.5,118.5C 79.1667,118.5 83.8333,118.5 88.5,118.5C 88.5,99.1667 88.5,79.8333 88.5,60.5 Z"/></g>
<g><path style="opacity:1" fill="#19944c" d="M 96.5,60.5 C 111.167,60.5 125.833,60.5 140.5,60.5C 140.5,60.8333 140.5,61.1667 140.5,61.5C 140.5,80.5 140.5,99.5 140.5,118.5C 125.676,119.496 110.676,119.829 95.5,119.5C 95.1696,99.6596 95.5029,79.9929 96.5,60.5 Z"/></g>
<g><path style="opacity:1" fill="#001602" d="M 140.5,61.5 C 141.675,61.281 142.675,61.6143 143.5,62.5C 142.194,71.5052 141.527,80.6719 141.5,90C 141.667,98.8333 141.833,107.667 142,116.5C 143.836,118.131 143.336,118.798 140.5,118.5C 140.5,99.5 140.5,80.5 140.5,61.5 Z"/></g>
<g><path style="opacity:1" fill="#31d279" d="M 96.5,63.5 C 97.2055,82.011 97.8721,100.344 98.5,118.5C 96.5131,100.53 95.8465,82.1971 96.5,63.5 Z"/></g>
<g><path style="opacity:1" fill="#838389" d="M 74.5,97.5 C 69.8333,97.5 65.1667,97.5 60.5,97.5C 60.8245,104.687 60.4912,111.687 59.5,118.5C 59.5,111.167 59.5,103.833 59.5,96.5C 64.6946,96.1795 69.6946,96.5128 74.5,97.5 Z"/></g>
<g><path style="opacity:1" fill="#15ec7a" d="M 138.5,63.5 C 139.497,81.6591 139.83,99.9924 139.5,118.5C 125.833,118.5 112.167,118.5 98.5,118.5C 97.8721,100.344 97.2055,82.011 96.5,63.5C 103.133,62.1696 110.133,61.5029 117.5,61.5C 124.867,61.5029 131.867,62.1696 138.5,63.5 Z"/></g>
<g><path style="opacity:1" fill="#03ea62" d="M 138.5,63.5 C 138.793,81.5343 138.46,99.5343 137.5,117.5C 124.829,117.667 112.162,117.5 99.5,117C 99.8333,116.667 100.167,116.333 100.5,116C 99.7734,114.601 99.2734,113.101 99,111.5C 98.1758,95.2592 98.3425,79.0925 99.5,63C 112.575,62.187 125.575,62.3537 138.5,63.5 Z"/></g>
</svg>
