<?xml version="1.0" encoding="UTF-8"?>
<!DOCTYPE svg PUBLIC "-//W3C//DTD SVG 1.1//EN" "http://www.w3.org/Graphics/SVG/1.1/DTD/svg11.dtd">
<svg xmlns="http://www.w3.org/2000/svg" version="1.1" width="110px" height="46px" style="shape-rendering:geometricPrecision; text-rendering:geometricPrecision; image-rendering:optimizeQuality; fill-rule:evenodd; clip-rule:evenodd" xmlns:xlink="http://www.w3.org/1999/xlink">
<g><path style="opacity:1" fill="#1189e4" d="M 23.5,3.5 C 28.7473,3.63975 29.7473,5.80642 26.5,10C 18.5904,10.759 17.5904,8.59229 23.5,3.5 Z"/></g>
<g><path style="opacity:1" fill="#1689e4" d="M 44.5,3.5 C 48.9553,3.76292 50.122,5.76292 48,9.5C 45.6194,10.435 43.1194,10.7683 40.5,10.5C 39.6799,6.72119 41.0133,4.38786 44.5,3.5 Z"/></g>
<g><path style="opacity:1" fill="#188ae4" d="M 94.5,17.5 C 93.1667,16.8333 91.8333,16.1667 90.5,15.5C 95.1854,13.8909 99.1854,15.0575 102.5,19C 100.981,21.9269 98.6472,22.9269 95.5,22C 94.6198,20.6439 94.2865,19.1439 94.5,17.5 Z"/></g>
<g><path style="opacity:1" fill="#1289e4" d="M 18.5,14.5 C 21.8852,13.7896 24.2186,14.9563 25.5,18C 24.1184,22.7642 22.4518,27.4309 20.5,32C 20.8333,32.5 21.1667,33 21.5,33.5C 22.6311,32.2485 23.9644,31.2485 25.5,30.5C 26.1667,30.6667 26.8333,30.8333 27.5,31C 24.2769,36.2764 19.6102,38.2764 13.5,37C 12.9032,35.9383 12.5698,34.7716 12.5,33.5C 14.1352,28.4373 15.6352,23.4373 17,18.5C 15.3333,19.5 14,20.8333 13,22.5C 10.1525,21.5667 9.98581,20.0667 12.5,18C 14.4319,16.5415 16.4319,15.3748 18.5,14.5 Z"/></g>
<g><path style="opacity:1" fill="#0d88e4" d="M 38.5,14.5 C 42.2399,13.6799 44.5733,15.0132 45.5,18.5C 44.4039,23.3612 42.7372,28.0279 40.5,32.5C 40.8333,32.8333 41.1667,33.1667 41.5,33.5C 42.8745,32.2887 44.3745,31.2887 46,30.5C 46.5,30.8333 47,31.1667 47.5,31.5C 44.322,36.0896 39.9887,37.9229 34.5,37C 33.4258,36.2613 32.7591,35.2613 32.5,34C 33.608,30.0088 35.108,26.1754 37,22.5C 37.6667,21.1667 37.6667,19.8333 37,18.5C 35.6667,19.8333 34.3333,21.1667 33,22.5C 32.2496,21.8742 31.4162,21.3742 30.5,21C 32.7761,18.2111 35.4427,16.0444 38.5,14.5 Z"/></g>
<g><path style="opacity:1" fill="#188ae5" d="M 64.5,20.5 C 64.8333,21.5 65.5,22.1667 66.5,22.5C 63.121,26.928 61.121,31.928 60.5,37.5C 57.8333,37.5 55.1667,37.5 52.5,37.5C 53.7977,31.4406 55.7977,25.6072 58.5,20C 58.3333,19.5 58.1667,19 58,18.5C 56.6667,19.8333 55.3333,21.1667 54,22.5C 53.2496,21.8742 52.4162,21.3742 51.5,21C 54.2099,16.1423 58.2099,14.3089 63.5,15.5C 64.4519,17.0453 64.7852,18.712 64.5,20.5 Z"/></g>
<g><path style="opacity:1" fill="#1e8ae5" d="M 66.5,22.5 C 65.5,22.1667 64.8333,21.5 64.5,20.5C 66.7574,18.0767 69.4241,16.2433 72.5,15C 80.68,15.1753 81.3467,17.342 74.5,21.5C 72.8662,21.032 71.6995,20.032 71,18.5C 69.6288,20.0414 68.1288,21.3747 66.5,22.5 Z"/></g>
<g><path style="opacity:1" fill="#1489e4" d="M 90.5,15.5 C 91.8333,16.1667 93.1667,16.8333 94.5,17.5C 91.7743,17.2639 89.441,18.0972 87.5,20C 91.248,22.6244 95.0813,25.1244 99,27.5C 99.2517,33.756 96.085,37.0893 89.5,37.5C 88.3915,36.71 87.0581,36.21 85.5,36C 86.056,35.6174 86.3893,35.1174 86.5,34.5C 89.0217,34.8719 91.0217,34.0386 92.5,32C 89.3372,29.5843 86.0039,27.4177 82.5,25.5C 79.6647,22.3295 79.9981,19.4962 83.5,17C 85.6775,15.7978 88.0108,15.2978 90.5,15.5 Z"/></g>
<g><path style="opacity:1" fill="#1287e4" d="M 86.5,34.5 C 86.3893,35.1174 86.056,35.6174 85.5,36C 87.0581,36.21 88.3915,36.71 89.5,37.5C 85.6924,37.8368 82.0257,37.3368 78.5,36C 75.5544,32.5089 76.3878,30.3422 81,29.5C 83.9649,29.4384 84.7982,30.6051 83.5,33C 84.2438,34.0386 85.2438,34.5386 86.5,34.5 Z"/></g>
</svg>
