<?xml version="1.0" encoding="UTF-8"?>
<!DOCTYPE svg PUBLIC "-//W3C//DTD SVG 1.1//EN" "http://www.w3.org/Graphics/SVG/1.1/DTD/svg11.dtd">
<svg xmlns="http://www.w3.org/2000/svg" version="1.1" width="771px" height="230px" style="shape-rendering:geometricPrecision; text-rendering:geometricPrecision; image-rendering:optimizeQuality; fill-rule:evenodd; clip-rule:evenodd" xmlns:xlink="http://www.w3.org/1999/xlink">
<g><path style="opacity:0.905" fill="#1a1513" d="M 101.5,20.5 C 109.528,20.169 117.528,20.5023 125.5,21.5C 126.114,25.2293 127.281,29.2293 129,33.5C 131.696,35.8375 134.529,37.1709 137.5,37.5C 139.098,37.3903 140.765,37.057 142.5,36.5C 145.415,33.0413 148.748,30.0413 152.5,27.5C 154.385,28.6094 156.385,29.4427 158.5,30C 161.744,31.6357 164.578,33.8023 167,36.5C 167.333,36.1667 167.667,35.8333 168,35.5C 170.027,36.6933 171.527,38.36 172.5,40.5C 171.833,41.1667 171.167,41.8333 170.5,42.5C 170.623,44.3775 170.623,46.2109 170.5,48C 169.833,48.3333 169.167,48.6667 168.5,49C 168.493,50.5827 168.826,52.2494 169.5,54C 172.312,55.9773 174.978,58.144 177.5,60.5C 182.203,58.5009 186.369,57.1675 190,56.5C 191.947,58.2365 193.781,60.0698 195.5,62C 195.167,62.3333 194.833,62.6667 194.5,63C 196.679,63.4419 197.345,64.4419 196.5,66C 200.261,69.031 202.595,72.031 203.5,75C 200.534,79.3173 197.2,83.3173 193.5,87C 194.821,89.0707 195.821,91.0707 196.5,93C 196.043,93.414 195.709,93.914 195.5,94.5C 196.5,95.5 197.5,96.5 198.5,97.5C 201.95,98.397 205.284,98.397 208.5,97.5C 210.637,98.7381 211.971,100.571 212.5,103C 212.583,109.297 212.416,115.797 212,122.5C 209.91,123.794 207.91,124.794 206,125.5C 204.853,124.542 203.853,124.875 203,126.5C 202.667,126.167 202.333,125.833 202,125.5C 199.402,129.548 198.568,133.882 199.5,138.5C 201.889,139.602 203.723,141.269 205,143.5C 205.333,143.167 205.667,142.833 206,142.5C 209.621,145.56 210.121,148.894 207.5,152.5C 207.539,156.827 205.873,160.66 202.5,164C 203.634,165.016 203.301,165.683 201.5,166C 201.833,166.333 202.167,166.667 202.5,167C 199.335,169.13 196.335,168.963 193.5,166.5C 191.602,167.734 189.935,167.401 188.5,165.5C 186.055,167.568 183.722,169.735 181.5,172C 181.833,172.333 182.167,172.667 182.5,173C 180.972,174.361 179.305,175.528 177.5,176.5C 170.921,171.672 164.754,167.005 159,162.5C 158.446,159.443 159.613,157.276 162.5,156C 162.167,155.667 161.833,155.333 161.5,155C 163.5,152.667 165.5,150.333 167.5,148C 166.729,146.002 167.395,144.335 169.5,143C 168.542,141.853 168.875,140.853 170.5,140C 170.167,139.667 169.833,139.333 169.5,139C 170.835,135.982 172.168,132.982 173.5,130C 174.788,123.175 174.788,116.342 173.5,109.5C 171.987,104.459 169.987,99.6258 167.5,95C 167.833,94.6667 168.167,94.3333 168.5,94C 166.783,91.093 164.45,88.093 161.5,85C 161.5,84 161.5,83 161.5,82C 160.5,81.6667 159.5,81.3333 158.5,81C 157.896,78.5325 156.562,76.5325 154.5,75C 149.991,71.6677 145.324,68.5011 140.5,65.5C 137.141,64.9145 134.141,63.5811 131.5,61.5C 129.737,61.3062 127.903,61.3062 126,61.5C 125.333,60.8333 124.667,60.1667 124,59.5C 117.413,58.4642 110.579,58.4642 103.5,59.5C 101.598,61.1511 99.5979,61.4845 97.5,60.5C 92.8565,62.4801 88.0231,64.8135 83,67.5C 82.6667,67.1667 82.3333,66.8333 82,66.5C 72.3322,74.0352 63.8322,83.3685 56.5,94.5C 57.9023,95.8425 57.5689,96.6758 55.5,97C 55.8333,97.3333 56.1667,97.6667 56.5,98C 55.1886,102.822 53.5219,107.822 51.5,113C 52.8333,117.333 52.8333,121.667 51.5,126C 52.5,129 53.5,132 54.5,135C 53.3659,136.016 53.6992,136.683 55.5,137C 55.0426,137.414 54.7093,137.914 54.5,138.5C 55.4167,139.971 56.4167,141.471 57.5,143C 57.1667,143.333 56.8333,143.667 56.5,144C 60.261,150.131 63.9277,155.798 67.5,161C 65.8333,163.265 63.9999,165.431 62,167.5C 61.6667,167.167 61.3333,166.833 61,166.5C 57.031,170.591 52.6977,174.258 48,177.5C 44.8137,174.018 41.9804,170.851 39.5,168C 40.8333,167.333 40.8333,166.667 39.5,166C 37.5355,165.376 35.8689,165.876 34.5,167.5C 32.2492,166.135 30.2492,166.469 28.5,168.5C 26.4935,168.868 24.4935,168.368 22.5,167C 23.6341,165.984 23.3008,165.317 21.5,165C 21.8333,164.667 22.1667,164.333 22.5,164C 19.7666,161.169 17.7666,157.836 16.5,154C 16.3775,152.211 16.3775,150.378 16.5,148.5C 15.9747,147.808 15.3081,147.308 14.5,147C 15.7014,146.097 16.5348,144.931 17,143.5C 17.3333,143.833 17.6667,144.167 18,144.5C 19.8237,142.274 21.657,140.774 23.5,140C 24.448,139.517 25.448,139.351 26.5,139.5C 26.8387,135.675 26.8387,131.841 26.5,128C 25.8742,127.25 25.3742,126.416 25,125.5C 24.6667,125.833 24.3333,126.167 24,126.5C 20.6017,125.341 16.935,124.008 13,122.5C 12.015,114.375 12.515,106.375 14.5,98.5C 15.7202,97.2889 16.8869,97.2889 18,98.5C 18.7387,97.4258 19.7387,96.7591 21,96.5C 23.1199,97.4589 25.2865,97.6256 27.5,97C 29.1279,93.3061 30.7946,89.6395 32.5,86C 29.1667,82.6667 25.8333,79.3333 22.5,76C 23.4356,73.5807 24.2689,71.0807 25,68.5C 25.9476,66.4299 27.4476,64.9299 29.5,64C 29.1667,63.6667 28.8333,63.3333 28.5,63C 30.259,61.992 31.4257,60.492 32,58.5C 33.9751,57.522 35.6418,56.1887 37,54.5C 37.9454,54.9054 38.6121,55.572 39,56.5C 40.3333,56.5 41.6667,56.5 43,56.5C 43.3173,58.3008 43.984,58.6341 45,57.5C 47.3728,59.8501 49.8728,60.0167 52.5,58C 54.1255,55.3723 56.1255,53.039 58.5,51C 56.4156,47.4993 54.749,44.166 53.5,41C 54.1905,39.9326 54.6905,38.7659 55,37.5C 61.4071,33.4414 68.0738,29.7747 75,26.5C 79.1722,29.3352 82.3389,32.5019 84.5,36C 86.4731,38.0151 88.1397,37.8484 89.5,35.5C 90.1667,35.8333 90.8333,36.1667 91.5,36.5C 93.7328,35.2578 95.8995,33.9245 98,32.5C 99.5939,28.6105 100.761,24.6105 101.5,20.5 Z M 207.5,117.5 C 202.221,119.269 197.554,121.435 193.5,124C 194.019,126.026 194.353,128.026 194.5,130C 192.331,131.328 191.998,132.994 193.5,135C 193.05,136.285 192.383,137.452 191.5,138.5C 192.04,139.748 192.707,140.915 193.5,142C 197.687,144.008 201.02,146.341 203.5,149C 201.641,153.073 200.308,157.24 199.5,161.5C 196.551,163.056 193.884,162.722 191.5,160.5C 190.833,160.833 190.167,161.167 189.5,161.5C 187.809,159.744 185.809,159.244 183.5,160C 181.83,162.387 180.163,164.721 178.5,167C 178.833,167.333 179.167,167.667 179.5,168C 178.667,168.167 177.833,168.333 177,168.5C 174.743,167.252 172.743,165.585 171,163.5C 170.667,163.833 170.333,164.167 170,164.5C 168.812,161.962 167.312,160.462 165.5,160C 166.73,157.341 168.73,154.674 171.5,152C 170.366,150.984 170.699,150.317 172.5,150C 171.366,148.984 171.699,148.317 173.5,148C 173.167,147.667 172.833,147.333 172.5,147C 174.976,143.869 176.643,140.702 177.5,137.5C 176.529,136.038 176.862,134.705 178.5,133.5C 178.069,132.707 177.735,131.873 177.5,131C 178.394,129.604 179.061,128.104 179.5,126.5C 178.167,121.833 178.167,117.167 179.5,112.5C 177.688,110.443 177.355,108.276 178.5,106C 176.606,104.921 176.273,103.587 177.5,102C 176.12,100.676 175.786,99.3431 176.5,98C 175.341,96.1733 174.008,94.5067 172.5,93C 173.061,91.4345 172.394,90.1011 170.5,89C 171.299,87.2513 170.632,85.918 168.5,85C 167.62,80.7281 164.953,77.3947 160.5,75C 160.833,74.6667 161.167,74.3333 161.5,74C 154.027,67.518 145.861,62.018 137,57.5C 136.667,57.8333 136.333,58.1667 136,58.5C 134.212,57.6422 132.378,56.6422 130.5,55.5C 128.837,56.8754 127.503,56.542 126.5,54.5C 125.914,54.7093 125.414,55.0426 125,55.5C 122.932,54.6064 120.765,53.9397 118.5,53.5C 112.854,54.0486 107.354,54.0486 102,53.5C 100.212,54.3578 98.3785,55.3578 96.5,56.5C 94.5967,56.3062 92.7633,56.3062 91,56.5C 90.3946,58.4812 89.3946,58.8146 88,57.5C 82.0686,60.2948 76.5686,63.6281 71.5,67.5C 72.9869,65.158 72.6536,63.158 70.5,61.5C 71.1894,60.2264 72.0228,60.2264 73,61.5C 73.9147,60.6721 74.5814,59.6721 75,58.5C 76.3985,59.0509 77.7318,59.3842 79,59.5C 79.6924,58.9747 80.1924,58.3081 80.5,57.5C 80.2743,55.2637 79.4409,52.9304 78,50.5C 76.9148,49.7069 75.7481,49.0402 74.5,48.5C 72.8791,51.6198 70.7124,54.2865 68,56.5C 66.7318,56.3842 65.3985,56.0509 64,55.5C 62.9697,57.8473 62.303,60.1806 62,62.5C 63.3754,64.9772 65.2088,65.8106 67.5,65C 66.4632,66.8508 67.1299,68.0175 69.5,68.5C 61.9748,76.3975 55.9748,84.2309 51.5,92C 51.8333,92.3333 52.1667,92.6667 52.5,93C 51.1667,95 49.8333,97 48.5,99C 48.8333,99.3333 49.1667,99.6667 49.5,100C 48.6563,102.454 47.6563,104.954 46.5,107.5C 46.9867,108.446 47.3201,109.446 47.5,110.5C 44.8333,116.5 44.8333,122.5 47.5,128.5C 46.009,130.541 46.3423,132.041 48.5,133C 48.1667,134 47.8333,135 47.5,136C 51.8378,143.905 55.6711,152.405 59,161.5C 56.4571,163.342 54.2904,165.509 52.5,168C 51.2341,168.309 50.0674,168.809 49,169.5C 45.5024,166.184 42.6691,162.851 40.5,159.5C 37.3253,160.587 34.1586,161.587 31,162.5C 29.1886,161.922 27.3553,161.422 25.5,161C 26.4581,159.853 26.1247,158.853 24.5,158C 24.8333,157.667 25.1667,157.333 25.5,157C 23.6886,154.403 22.3552,151.569 21.5,148.5C 24.6228,146.186 28.2895,143.853 32.5,141.5C 32.5693,139.722 32.9026,137.889 33.5,136C 32.1955,135.196 31.5288,134.029 31.5,132.5C 31.7813,129.448 31.7813,126.448 31.5,123.5C 28.3543,121.165 24.8543,119.499 21,118.5C 19.984,119.634 19.3173,119.301 19,117.5C 18.6667,117.833 18.3333,118.167 18,118.5C 16.5327,115.216 16.6994,112.216 18.5,109.5C 17.7517,107.584 17.7517,105.584 18.5,103.5C 21.2298,103.527 23.7298,102.86 26,101.5C 31.3142,103.207 34.3142,101.207 35,95.5C 36.6756,97.3153 37.5089,99.1486 37.5,101C 33.8003,103.898 32.8003,107.231 34.5,111C 34.0496,112.285 33.3829,113.452 32.5,114.5C 32.9569,115.298 33.6236,115.631 34.5,115.5C 34.8503,119.054 34.1837,122.388 32.5,125.5C 33.3805,126.971 34.7139,127.804 36.5,128C 35.7126,133.463 37.2126,133.963 41,129.5C 42.2975,130.784 43.4642,130.617 44.5,129C 42.4311,128.676 42.0977,127.842 43.5,126.5C 42.8333,124.833 42.1667,123.167 41.5,121.5C 42.1667,119.833 42.8333,118.167 43.5,116.5C 41.9223,115.702 40.2556,115.202 38.5,115C 39.938,114.781 41.2713,114.281 42.5,113.5C 41.9747,112.808 41.3081,112.308 40.5,112C 43.4927,111.573 43.9927,110.406 42,108.5C 40.9505,109.517 39.7839,109.684 38.5,109C 40.5873,108.208 42.4207,107.041 44,105.5C 44.3534,104.328 44.1868,103.162 43.5,102C 44.2718,100.779 45.2718,99.779 46.5,99C 45.7865,97.6569 46.1198,96.3236 47.5,95C 44.195,91.4607 40.695,90.9607 37,93.5C 36.4644,91.4328 36.9644,89.5994 38.5,88C 38.1667,87.6667 37.8333,87.3333 37.5,87C 38.3567,86.3109 39.0233,85.4776 39.5,84.5C 35.6747,81.5071 32.3413,78.0071 29.5,74C 31.1814,72.0545 31.848,70.0545 31.5,68C 34.473,66.2352 36.6396,63.7352 38,60.5C 41.9471,63.0268 45.9471,65.3601 50,67.5C 55.7151,63.286 60.5485,58.286 64.5,52.5C 64.0814,51.3279 63.4147,50.3279 62.5,49.5C 63.7178,48.1973 63.3845,47.1973 61.5,46.5C 62.7178,45.1973 62.3845,44.1973 60.5,43.5C 61.1445,42.2679 61.3112,40.9346 61,39.5C 61.3333,39.8333 61.6667,40.1667 62,40.5C 66.2253,36.9875 70.2253,34.6542 74,33.5C 77.1667,36.6667 80.3333,39.8333 83.5,43C 85.4789,43.6836 87.1456,43.1836 88.5,41.5C 89.9621,42.4709 91.2954,42.1376 92.5,40.5C 94.5979,41.4845 96.5979,41.1511 98.5,39.5C 99.1667,39.8333 99.8333,40.1667 100.5,40.5C 102.303,38.7953 102.969,36.962 102.5,35C 104.301,34.6827 104.634,34.016 103.5,33C 105.294,31.3189 105.794,29.4856 105,27.5C 106.019,26.3128 107.186,25.3128 108.5,24.5C 110.833,25.8333 113.167,25.8333 115.5,24.5C 117.541,25.2357 119.541,26.0691 121.5,27C 121.167,27.3333 120.833,27.6667 120.5,28C 122.269,30.269 122.935,32.6023 122.5,35C 123.594,36.7803 124.594,38.6136 125.5,40.5C 126.716,39.9984 127.883,39.6651 129,39.5C 129.667,40.1667 130.333,40.8333 131,41.5C 132.903,41.3062 134.737,41.3062 136.5,41.5C 138.13,42.898 139.964,43.898 142,44.5C 145.377,39.8204 149.044,36.1537 153,33.5C 153.317,35.3008 153.984,35.6341 155,34.5C 156.558,36.7676 158.724,37.9343 161.5,38C 162.126,38.7504 162.626,39.5838 163,40.5C 163.333,40.1667 163.667,39.8333 164,39.5C 164.309,40.7659 164.809,41.9326 165.5,43C 164.167,46.3333 162.833,49.6667 161.5,53C 162.167,54.3333 162.833,55.6667 163.5,57C 168.302,59.8073 172.469,63.3073 176,67.5C 179.875,66.5955 183.542,65.2621 187,63.5C 188.823,64.6512 190.656,65.8179 192.5,67C 192.167,67.3333 191.833,67.6667 191.5,68C 193.321,70.3351 194.988,72.8351 196.5,75.5C 192.485,78.5164 189.152,82.1831 186.5,86.5C 187.917,89.6703 189.584,92.6703 191.5,95.5C 191.291,96.086 190.957,96.586 190.5,97C 192.004,98.4907 192.837,100.324 193,102.5C 193.893,101.919 194.893,101.585 196,101.5C 199.019,102.809 202.185,103.809 205.5,104.5C 206.357,105.736 207.023,107.069 207.5,108.5C 207.381,111.596 207.381,114.596 207.5,117.5 Z M 93.5,47.5 C 95.0847,48.0024 95.5847,49.0024 95,50.5C 93.9614,49.7562 93.4614,48.7562 93.5,47.5 Z M 135.5,49.5 C 136.289,49.7828 136.956,50.2828 137.5,51C 136.184,51.5281 135.517,51.0281 135.5,49.5 Z M 71.5,67.5 C 71.5912,69.6977 70.9245,70.0311 69.5,68.5C 69.4088,66.3023 70.0755,65.9689 71.5,67.5 Z M 136.5,112.5 C 134.283,113.238 132.116,113.571 130,113.5C 129.683,111.699 129.016,111.366 128,112.5C 127.097,111.299 125.931,110.465 124.5,110C 125.727,108.413 125.394,107.079 123.5,106C 126.047,104.559 128.547,104.059 131,104.5C 132.596,107.369 134.43,110.036 136.5,112.5 Z M 94.5,103.5 C 96.717,104.369 99.0504,104.702 101.5,104.5C 101.719,105.675 101.386,106.675 100.5,107.5C 98.9984,108.083 97.6651,108.916 96.5,110C 94.3438,109.31 92.1771,109.477 90,110.5C 88.7425,110.15 88.4092,109.483 89,108.5C 90.8119,106.7 92.6452,105.033 94.5,103.5 Z M 110.5,101.5 C 115.042,102.107 118.708,104.274 121.5,108C 120.54,109.419 119.707,110.919 119,112.5C 116.72,112.58 114.387,111.913 112,110.5C 109.592,112.624 107.092,112.457 104.5,110C 105.833,109 105.833,108 104.5,107C 106.301,106.683 106.634,106.016 105.5,105C 107.973,104.78 109.64,103.614 110.5,101.5 Z M 135.5,97.5 C 135.489,100.001 134.822,100.168 133.5,98C 134.094,97.5357 134.761,97.369 135.5,97.5 Z M 91.5,94.5 C 92.2891,94.7828 92.9558,95.2828 93.5,96C 92.184,96.5281 91.5173,96.0281 91.5,94.5 Z M 85.5,92.5 C 87.5286,94.0207 88.3619,96.0207 88,98.5C 85.6439,96.8312 84.8105,94.8312 85.5,92.5 Z M 139.5,90.5 C 139.539,93.089 138.539,95.089 136.5,96.5C 136.389,95.8826 136.056,95.3826 135.5,95C 136.92,93.5084 138.254,92.0084 139.5,90.5 Z M 122.5,90.5 C 122.768,92.099 122.434,93.4324 121.5,94.5C 120.557,92.9988 120.891,91.6654 122.5,90.5 Z M 85.5,92.5 C 84.0384,91.5423 82.7051,90.3756 81.5,89C 84.1383,88.4912 85.4717,89.6578 85.5,92.5 Z M 134.5,83.5 C 135.371,85.7767 135.038,88.11 133.5,90.5C 133.446,89.4699 133.112,88.3033 132.5,87C 133.823,86.1841 134.489,85.0174 134.5,83.5 Z M 86.5,83.5 C 88.3621,82.424 89.6954,83.0906 90.5,85.5C 90.0261,88.6997 89.0261,89.033 87.5,86.5C 88.7768,85.0783 88.4435,84.0783 86.5,83.5 Z M 129.5,79.5 C 130.246,82.3855 130.08,85.3855 129,88.5C 128.713,86.1093 128.213,83.7759 127.5,81.5C 127.855,80.4777 128.522,79.811 129.5,79.5 Z M 94.5,78.5 C 95.8799,78.9623 96.5466,79.9623 96.5,81.5C 95.2476,86.4201 95.9142,91.0868 98.5,95.5C 96.7537,93.5809 95.0871,91.4143 93.5,89C 94.3822,85.5592 94.7155,82.0592 94.5,78.5 Z M 94.5,78.5 C 92.9719,78.4827 92.4719,77.816 93,76.5C 93.7172,77.0442 94.2172,77.7109 94.5,78.5 Z M 122.5,90.5 C 121.819,85.4474 121.152,80.9474 120.5,77C 120.93,75.5659 121.764,74.3992 123,73.5C 123.26,79.2494 123.093,84.9161 122.5,90.5 Z M 103.5,93.5 C 101.706,91.3165 100.372,88.8165 99.5,86C 100.849,81.9307 102.016,77.764 103,73.5C 104.255,74.2106 105.421,75.044 106.5,76C 105.308,77.9124 104.308,79.9124 103.5,82C 103.541,85.832 103.541,89.6654 103.5,93.5 Z M 112.5,72.5 C 113.496,72.4142 114.329,72.7476 115,73.5C 115.303,75.8884 116.137,78.0551 117.5,80C 117.025,81.9606 117.025,84.1273 117.5,86.5C 117.114,90.1016 116.614,93.4349 116,96.5C 114.774,98.5477 113.274,98.881 111.5,97.5C 107.54,92.7228 106.874,87.2228 109.5,81C 109.152,78.9455 109.819,76.9455 111.5,75C 111.167,74.6667 110.833,74.3333 110.5,74C 111.416,73.7216 112.082,73.2216 112.5,72.5 Z M 136.5,140.5 C 134.775,140.157 134.275,139.157 135,137.5C 137.158,138.05 137.658,139.05 136.5,140.5 Z M 89.5,138.5 C 89.0433,140.747 88.0433,142.747 86.5,144.5C 86.8627,145.183 87.1961,145.85 87.5,146.5C 85.4004,146.477 83.5671,147.144 82,148.5C 80.282,147.969 80.1153,147.302 81.5,146.5C 83.2701,145.236 84.9368,143.736 86.5,142C 86.1667,141.667 85.8333,141.333 85.5,141C 86.7356,139.915 88.0689,139.082 89.5,138.5 Z M 113.5,139.5 C 114.497,138.287 115.497,138.454 116.5,140C 115.416,142.19 116.083,143.856 118.5,145C 117.5,145.5 116.5,146 115.5,146.5C 114.832,144.031 114.165,141.698 113.5,139.5 Z M 108.5,140.5 C 109.738,142.214 110.405,144.214 110.5,146.5C 109.325,146.719 108.325,146.386 107.5,145.5C 108.309,143.929 108.643,142.262 108.5,140.5 Z M 136.5,140.5 C 138.349,142.981 140.349,145.481 142.5,148C 139.497,147.747 136.497,147.081 133.5,146C 134.938,145.781 136.271,145.281 137.5,144.5C 137.212,143.139 136.879,141.806 136.5,140.5 Z M 122.5,143.5 C 123.289,143.783 123.956,144.283 124.5,145C 123.184,145.528 122.517,145.028 122.5,143.5 Z M 111.5,152.5 C 112.643,152.908 113.643,153.575 114.5,154.5C 113.167,155.833 111.833,155.833 110.5,154.5C 110.863,153.817 111.196,153.15 111.5,152.5 Z"/></g>
<g><path style="opacity:0.903" fill="#0049ad" d="M 455.5,32.5 C 458.833,32.5 462.167,32.5 465.5,32.5C 465.334,37.5111 465.501,42.5111 466,47.5C 472.617,43.0493 478.617,43.7159 484,49.5C 488.211,57.3193 488.544,65.3193 485,73.5C 478.916,80.6209 472.25,81.2876 465,75.5C 464.626,76.4162 464.126,77.2496 463.5,78C 460.854,78.4974 458.187,78.6641 455.5,78.5C 455.5,63.1667 455.5,47.8333 455.5,32.5 Z M 470.5,52.5 C 475.096,53.8117 477.429,56.9784 477.5,62C 476.896,64.5838 476.063,67.0838 475,69.5C 472.541,72.1003 470.041,72.1003 467.5,69.5C 464.833,64.5 464.833,59.5 467.5,54.5C 468.602,53.8243 469.602,53.1577 470.5,52.5 Z"/></g>
<g><path style="opacity:0.9" fill="#0049ac" d="M 230.5,35.5 C 233.833,35.5 237.167,35.5 240.5,35.5C 240.5,49.8333 240.5,64.1667 240.5,78.5C 237.167,78.5 233.833,78.5 230.5,78.5C 230.5,64.1667 230.5,49.8333 230.5,35.5 Z"/></g>
<g><path style="opacity:0.9" fill="#0049ac" d="M 250.5,35.5 C 253.833,35.5 257.167,35.5 260.5,35.5C 260.5,49.8333 260.5,64.1667 260.5,78.5C 257.167,78.5 253.833,78.5 250.5,78.5C 250.5,64.1667 250.5,49.8333 250.5,35.5 Z"/></g>
<g><path style="opacity:0.914" fill="#0049ac" d="M 266.5,35.5 C 277.5,35.5 288.5,35.5 299.5,35.5C 299.5,38.1667 299.5,40.8333 299.5,43.5C 295.5,43.5 291.5,43.5 287.5,43.5C 287.5,55.1667 287.5,66.8333 287.5,78.5C 284.167,78.5 280.833,78.5 277.5,78.5C 277.5,66.8333 277.5,55.1667 277.5,43.5C 273.833,43.5 270.167,43.5 266.5,43.5C 266.5,40.8333 266.5,38.1667 266.5,35.5 Z"/></g>
<g><path style="opacity:0.92" fill="#0049ad" d="M 320.5,35.5 C 327.841,35.3337 335.174,35.5003 342.5,36C 351.255,38.3423 354.089,43.8423 351,52.5C 349.786,54.0488 348.286,55.2155 346.5,56C 351.527,57.3716 353.86,60.7049 353.5,66C 353.197,71.9756 350.197,75.9756 344.5,78C 336.507,78.4997 328.507,78.6664 320.5,78.5C 320.5,64.1667 320.5,49.8333 320.5,35.5 Z M 330.5,43.5 C 334.257,43.0708 337.757,43.7375 341,45.5C 341.743,47.4406 341.576,49.2739 340.5,51C 337.274,52.1989 333.941,52.6989 330.5,52.5C 330.5,49.5 330.5,46.5 330.5,43.5 Z M 330.5,60.5 C 334.584,60.0431 338.417,60.7098 342,62.5C 343.212,65.8342 342.379,68.3342 339.5,70C 336.518,70.498 333.518,70.6646 330.5,70.5C 330.5,67.1667 330.5,63.8333 330.5,60.5 Z"/></g>
<g><path style="opacity:0.797" fill="#1b1715" d="M 96.5,45.5 C 97.6009,44.4017 98.9343,44.235 100.5,45C 99.4829,46.0495 99.3162,47.2161 100,48.5C 100.833,46.5 101.667,44.5 102.5,42.5C 103.478,42.9767 104.311,43.6433 105,44.5C 106.889,43.9026 108.722,43.5693 110.5,43.5C 111.833,45.8333 111.833,48.1667 110.5,50.5C 109.808,49.9747 109.308,49.3081 109,48.5C 104.34,50.0778 99.6738,51.7445 95,53.5C 93.1918,53.1119 91.5252,53.1119 90,53.5C 88.5587,54.87 86.892,55.87 85,56.5C 84.7265,54.6711 83.8932,53.1711 82.5,52C 83.6341,50.984 83.3008,50.3173 81.5,50C 82.3333,49.1667 83.1667,48.3333 84,47.5C 86.2598,47.3267 88.5931,47.3267 91,47.5C 91.3333,46.5 91.6667,45.5 92,44.5C 93.4293,44.4698 94.9293,44.8031 96.5,45.5 Z M 93.5,47.5 C 93.4614,48.7562 93.9614,49.7562 95,50.5C 95.5847,49.0024 95.0847,48.0024 93.5,47.5 Z"/></g>
<g><path style="opacity:0.913" fill="#0049ad" d="M 370.5,44.5 C 387.645,45.1644 393.811,53.8311 389,70.5C 387.402,75.0986 384.235,77.9319 379.5,79C 361.895,80.0515 355.062,71.8848 359,54.5C 361.21,49.1124 365.043,45.779 370.5,44.5 Z M 373.5,52.5 C 378.613,53.5412 380.946,56.7079 380.5,62C 380.862,66.7967 378.862,69.9633 374.5,71.5C 369.633,70.2866 367.633,67.1199 368.5,62C 367.748,57.3264 369.415,54.1597 373.5,52.5 Z"/></g>
<g><path style="opacity:0.939" fill="#0049ad" d="M 412.5,44.5 C 417.897,43.9663 422.397,45.633 426,49.5C 427.339,46.9057 429.506,45.4057 432.5,45C 439.593,43.3521 444.426,45.8521 447,52.5C 447.5,61.1603 447.666,69.8269 447.5,78.5C 444.167,78.5 440.833,78.5 437.5,78.5C 437.666,70.8261 437.5,63.1594 437,55.5C 433.711,51.9117 430.711,52.2451 428,56.5C 427.5,63.8258 427.334,71.1591 427.5,78.5C 424.167,78.5 420.833,78.5 417.5,78.5C 417.666,71.1591 417.5,63.8258 417,56.5C 415.057,52.5138 412.39,51.8471 409,54.5C 408.027,56.3921 407.36,58.3921 407,60.5C 406.501,66.4908 406.334,72.4908 406.5,78.5C 403.167,78.5 399.833,78.5 396.5,78.5C 396.5,67.5 396.5,56.5 396.5,45.5C 399.187,45.3359 401.854,45.5026 404.5,46C 405.126,46.7504 405.626,47.5838 406,48.5C 408.013,46.7518 410.18,45.4185 412.5,44.5 Z"/></g>
<g><path style="opacity:0.911" fill="#0049ad" d="M 503.5,44.5 C 509.804,43.7807 515.304,45.4473 520,49.5C 521.42,59.0862 521.92,68.7529 521.5,78.5C 519.143,78.6633 516.81,78.4966 514.5,78C 513.874,77.2496 513.374,76.4162 513,75.5C 508.483,79.2424 503.316,80.409 497.5,79C 493.285,77.0488 491.285,73.7155 491.5,69C 491.134,63.7476 493.468,60.4143 498.5,59C 502.79,58.0775 507.123,57.5775 511.5,57.5C 511.703,55.6096 511.037,54.1096 509.5,53C 505.668,52.2378 502.002,52.7378 498.5,54.5C 496.684,52.8816 495.351,50.8816 494.5,48.5C 497.285,46.4317 500.285,45.0984 503.5,44.5 Z M 508.5,63.5 C 509.5,63.5 510.5,63.5 511.5,63.5C 512.218,68.4138 510.218,71.4138 505.5,72.5C 501.162,71.1577 500.496,68.8244 503.5,65.5C 505.336,64.9724 507.003,64.3058 508.5,63.5 Z"/></g>
<g><path style="opacity:0.922" fill="#0049ad" d="M 525.5,45.5 C 529.106,45.2108 532.606,45.5442 536,46.5C 537.95,53.0206 540.283,59.354 543,65.5C 545.202,59.2279 547.202,52.8946 549,46.5C 552.394,45.5442 555.894,45.2108 559.5,45.5C 555.032,59.7341 549.866,73.7341 544,87.5C 539.676,92.6092 534.342,94.2759 528,92.5C 527.333,89.8333 527.333,87.1667 528,84.5C 533.192,85.9778 536.359,83.9778 537.5,78.5C 533.204,67.5816 529.204,56.5816 525.5,45.5 Z"/></g>
<g><path style="opacity:0.665" fill="#1a1614" d="M 155.5,62.5 C 154.85,62.8039 154.183,63.1373 153.5,63.5C 148.721,60.0371 143.721,57.0371 138.5,54.5C 137.197,55.7178 136.197,55.3845 135.5,53.5C 133.737,53.3062 131.903,53.3062 130,53.5C 129.581,52.3279 128.915,51.3279 128,50.5C 123.448,51.3967 118.948,51.3967 114.5,50.5C 114.682,48.4086 114.348,46.4086 113.5,44.5C 116.366,43.792 119.2,43.1253 122,42.5C 122.464,48.1748 123.131,48.5081 124,43.5C 125.333,44.8333 126.667,44.8333 128,43.5C 128.308,44.3081 128.808,44.9747 129.5,45.5C 130.716,44.9984 131.883,44.6651 133,44.5C 134.46,46.4224 136.127,47.0891 138,46.5C 140.333,47.8333 142.667,49.1667 145,50.5C 145.333,50.1667 145.667,49.8333 146,49.5C 150.393,51.8742 154.56,54.7075 158.5,58C 155.781,58.805 154.781,60.305 155.5,62.5 Z M 135.5,49.5 C 135.517,51.0281 136.184,51.5281 137.5,51C 136.956,50.2828 136.289,49.7828 135.5,49.5 Z"/></g>
<g><path style="opacity:0.673" fill="#1c1816" d="M 70.5,61.5 C 72.6536,63.158 72.9869,65.158 71.5,67.5C 70.0755,65.9689 69.4088,66.3023 69.5,68.5C 67.1299,68.0175 66.4632,66.8508 67.5,65C 65.2088,65.8106 63.3754,64.9772 62,62.5C 62.303,60.1806 62.9697,57.8473 64,55.5C 65.3985,56.0509 66.7318,56.3842 68,56.5C 70.7124,54.2865 72.8791,51.6198 74.5,48.5C 75.7481,49.0402 76.9148,49.7069 78,50.5C 79.4409,52.9304 80.2743,55.2637 80.5,57.5C 80.1924,58.3081 79.6924,58.9747 79,59.5C 77.7318,59.3842 76.3985,59.0509 75,58.5C 74.5814,59.6721 73.9147,60.6721 73,61.5C 72.0228,60.2264 71.1894,60.2264 70.5,61.5 Z"/></g>
<g><path style="opacity:0.683" fill="#1b1716" d="M 58.5,62.5 C 60.0331,64.3548 61.6997,66.1881 63.5,68C 62.4158,70.8249 61.2492,70.9915 60,68.5C 58.9806,70.2694 58.814,71.9361 59.5,73.5C 58.9747,74.1924 58.3081,74.6924 57.5,75C 57.8333,75.3333 58.1667,75.6667 58.5,76C 55.3879,76.625 53.5546,78.4583 53,81.5C 51.7453,82.2106 50.5786,83.044 49.5,84C 50.1667,84.3333 50.8333,84.6667 51.5,85C 49.9632,86.1096 49.2965,87.6096 49.5,89.5C 47.1229,89.2155 44.9562,89.2155 43,89.5C 41.4567,87.435 41.6234,85.2684 43.5,83C 41.2908,82.043 41.4575,80.8764 44,79.5C 44.3333,80.1667 44.6667,80.8333 45,81.5C 46.9805,77.04 49.8139,73.2067 53.5,70C 53.1667,69.6667 52.8333,69.3333 52.5,69C 54.8987,67.0198 56.8987,64.8531 58.5,62.5 Z"/></g>
<g><path style="opacity:0.695" fill="#1a1715" d="M 183.5,107.5 C 182.325,107.719 181.325,107.386 180.5,106.5C 182.362,103.643 181.696,101.143 178.5,99C 181.332,97.0924 180.999,96.259 177.5,96.5C 177.683,94.0637 177.016,91.897 175.5,90C 176.609,88.187 175.942,87.3537 173.5,87.5C 173.617,85.5165 172.95,83.8498 171.5,82.5C 171.863,81.8165 172.196,81.1499 172.5,80.5C 169.315,80.2776 168.315,78.7776 169.5,76C 168.062,75.7811 166.729,75.2811 165.5,74.5C 168.213,72.8173 168.713,70.8173 167,68.5C 166.692,69.3081 166.192,69.9747 165.5,70.5C 164.28,69.2889 163.113,69.2889 162,70.5C 160.22,68.9485 158.387,67.2818 156.5,65.5C 155.614,64.675 155.281,63.675 155.5,62.5C 157.183,61.3393 159.016,60.3393 161,59.5C 163.396,62.5176 166.23,65.0176 169.5,67C 168.167,68.8402 168.334,69.3402 170,68.5C 174.099,71.5285 176.766,75.1952 178,79.5C 179.569,80.9379 181.069,82.4379 182.5,84C 181.836,87.9873 183.169,91.3206 186.5,94C 185.5,94.3333 184.5,94.6667 183.5,95C 187.087,95.8603 188.42,97.8603 187.5,101C 187.905,101.945 188.572,102.612 189.5,103C 187.869,105.451 186.036,105.951 184,104.5C 183.517,105.448 183.351,106.448 183.5,107.5 Z"/></g>
<g><path style="opacity:0.988" fill="#e13336" d="M 319.5,181.5 C 299.573,182.654 279.573,182.82 259.5,182C 254.884,178.983 253.55,174.816 255.5,169.5C 270.833,163.167 286.167,156.833 301.5,150.5C 302.663,145.198 302.829,139.864 302,134.5C 300.601,128.1 296.767,123.934 290.5,122C 278.5,121.333 266.5,121.333 254.5,122C 247.667,123.5 243.5,127.667 242,134.5C 241.333,150.167 241.333,165.833 242,181.5C 243.938,189.105 248.772,193.605 256.5,195C 277.164,195.5 297.831,195.667 318.5,195.5C 317.519,204.309 312.519,208.809 303.5,209C 285.006,208.224 266.506,208.391 248,209.5C 241.939,209.35 236.105,208.183 230.5,206C 227.278,202.489 225.778,198.322 226,193.5C 225.333,169.167 225.333,144.833 226,120.5C 226.641,111.527 231.474,107.027 240.5,107C 261.5,106.333 282.5,106.333 303.5,107C 311.983,107.157 317.15,111.324 319,119.5C 319.5,140.164 319.667,160.831 319.5,181.5 Z"/></g>
<g><path style="opacity:0.688" fill="#1a1614" d="M 188.5,127.5 C 188.607,125.621 188.107,125.288 187,126.5C 185.693,125.228 184.193,124.228 182.5,123.5C 183.729,122.719 185.062,122.219 186.5,122C 182.254,120.225 181.254,117.558 183.5,114C 183.05,112.715 182.383,111.548 181.5,110.5C 182.193,109.482 182.859,108.482 183.5,107.5C 186.134,106.129 188.467,106.629 190.5,109C 189.167,110 189.167,111 190.5,112C 188.193,113.828 188.526,115.494 191.5,117C 190.5,118 189.5,119 188.5,120C 189.814,122.605 189.814,125.105 188.5,127.5 Z"/></g>
<g><path style="opacity:0.979" fill="#e23135" d="M 419.5,109.5 C 437.17,109.333 454.836,109.5 472.5,110C 481,111.833 486.167,117 488,125.5C 488.5,145.497 488.667,165.497 488.5,185.5C 469.453,185.935 450.453,185.435 431.5,184C 424,181.833 419.167,177 417,169.5C 413.426,154.806 418.592,144.973 432.5,140C 446.163,139.5 459.829,139.333 473.5,139.5C 474.464,132.822 472.464,127.322 467.5,123C 451.549,121.578 435.549,121.078 419.5,121.5C 419.5,117.5 419.5,113.5 419.5,109.5 Z M 439.5,151.5 C 450.833,151.5 462.167,151.5 473.5,151.5C 473.5,158.833 473.5,166.167 473.5,173.5C 464.161,173.666 454.827,173.5 445.5,173C 433.606,171.718 430.106,165.551 435,154.5C 436.652,153.601 438.152,152.601 439.5,151.5 Z"/></g>
<g><path style="opacity:0.973" fill="#e23135" d="M 500.5,109.5 C 516.17,109.333 531.837,109.5 547.5,110C 558.149,112.314 564.316,118.814 566,129.5C 566.5,148.164 566.667,166.83 566.5,185.5C 561.5,185.5 556.5,185.5 551.5,185.5C 551.948,166.778 551.448,148.112 550,129.5C 547.749,124.631 543.915,122.131 538.5,122C 530.507,121.5 522.507,121.334 514.5,121.5C 514.5,142.833 514.5,164.167 514.5,185.5C 509.833,185.5 505.167,185.5 500.5,185.5C 500.5,160.167 500.5,134.833 500.5,109.5 Z"/></g>
<g><path style="opacity:0.988" fill="#e23135" d="M 625.5,109.5 C 637.171,109.333 648.838,109.5 660.5,110C 668.155,111.655 673.321,116.155 676,123.5C 677.257,129.769 677.757,136.102 677.5,142.5C 672.5,142.5 667.5,142.5 662.5,142.5C 662.665,138.818 662.499,135.152 662,131.5C 661.771,128.542 660.604,126.042 658.5,124C 652.679,122.05 646.679,121.217 640.5,121.5C 640.5,142.833 640.5,164.167 640.5,185.5C 635.5,185.5 630.5,185.5 625.5,185.5C 625.5,160.167 625.5,134.833 625.5,109.5 Z"/></g>
<g><path style="opacity:0.982" fill="#e23135" d="M 683.5,109.5 C 701.17,109.333 718.836,109.5 736.5,110C 744.556,111.722 749.723,116.556 752,124.5C 752.5,144.831 752.667,165.164 752.5,185.5C 735.163,185.667 717.83,185.5 700.5,185C 687.07,183.235 680.403,175.569 680.5,162C 680.439,150.73 685.772,143.397 696.5,140C 710.163,139.5 723.829,139.333 737.5,139.5C 738.041,134.551 737.208,129.884 735,125.5C 734.097,124.299 732.931,123.465 731.5,123C 715.557,121.562 699.557,121.062 683.5,121.5C 683.5,117.5 683.5,113.5 683.5,109.5 Z M 704.5,151.5 C 715.5,151.5 726.5,151.5 737.5,151.5C 737.5,158.833 737.5,166.167 737.5,173.5C 728.161,173.666 718.827,173.5 709.5,173C 697.88,171.918 694.38,166.085 699,155.5C 700.5,153.531 702.333,152.198 704.5,151.5 Z"/></g>
<g><path style="opacity:0.981" fill="#e23135" d="M 340.5,109.5 C 345.5,109.5 350.5,109.5 355.5,109.5C 355.333,127.836 355.5,146.17 356,164.5C 358.323,169.92 362.49,172.754 368.5,173C 376.159,173.5 383.826,173.666 391.5,173.5C 391.5,152.167 391.5,130.833 391.5,109.5C 396.5,109.5 401.5,109.5 406.5,109.5C 406.667,138.169 406.5,166.835 406,195.5C 403.944,202.889 399.111,207.056 391.5,208C 375.17,208.5 358.837,208.667 342.5,208.5C 342.5,204.5 342.5,200.5 342.5,196.5C 357.55,196.916 372.55,196.416 387.5,195C 388.931,194.535 390.097,193.701 391,192.5C 391.497,190.19 391.663,187.857 391.5,185.5C 380.828,185.667 370.161,185.5 359.5,185C 348.782,183.404 342.615,177.238 341,166.5C 340.5,147.503 340.333,128.503 340.5,109.5 Z"/></g>
<g><path style="opacity:0.98" fill="#e13135" d="M 568.5,109.5 C 585.833,109.5 603.167,109.5 620.5,109.5C 620.5,113.5 620.5,117.5 620.5,121.5C 613.167,121.5 605.833,121.5 598.5,121.5C 598.333,137.17 598.5,152.837 599,168.5C 599.935,171.102 601.768,172.602 604.5,173C 608.821,173.499 613.154,173.666 617.5,173.5C 617.5,177.5 617.5,181.5 617.5,185.5C 609.826,185.666 602.159,185.5 594.5,185C 588.833,183.178 585.333,179.344 584,173.5C 583.5,156.17 583.333,138.837 583.5,121.5C 578.5,121.5 573.5,121.5 568.5,121.5C 568.5,117.5 568.5,113.5 568.5,109.5 Z"/></g>
<g><path style="opacity:1" fill="#fdf8f8" d="M 319.5,181.5 C 319.819,186.363 319.486,191.03 318.5,195.5C 297.831,195.667 277.164,195.5 256.5,195C 248.772,193.605 243.938,189.105 242,181.5C 241.333,165.833 241.333,150.167 242,134.5C 243.5,127.667 247.667,123.5 254.5,122C 266.5,121.333 278.5,121.333 290.5,122C 296.767,123.934 300.601,128.1 302,134.5C 302.829,139.864 302.663,145.198 301.5,150.5C 286.167,156.833 270.833,163.167 255.5,169.5C 253.55,174.816 254.884,178.983 259.5,182C 279.573,182.82 299.573,182.654 319.5,181.5 Z"/></g>
<g><path style="opacity:0.684" fill="#1a1715" d="M 47.5,148.5 C 50.5239,148.947 50.8572,149.78 48.5,151C 49.8333,152 51.1667,153 52.5,154C 51.5419,155.147 51.8753,156.147 53.5,157C 52.8333,157.333 52.1667,157.667 51.5,158C 54.1434,160.429 53.6434,162.262 50,163.5C 48.4045,162.503 46.9045,161.337 45.5,160C 45.8333,159.667 46.1667,159.333 46.5,159C 44.0029,155.321 41.6696,151.487 39.5,147.5C 38.0944,148.668 36.9277,148.335 36,146.5C 37.276,142.156 37.776,137.989 37.5,134C 40.3787,133.126 43.0454,133.46 45.5,135C 43.9632,136.11 43.2965,137.61 43.5,139.5C 44.5,139.5 45.5,139.5 46.5,139.5C 46.317,141.936 46.9837,144.103 48.5,146C 47.7476,146.671 47.4142,147.504 47.5,148.5 Z"/></g>
<g><path style="opacity:1" fill="#e13437" d="M 259.5,134.5 C 268.173,134.334 276.84,134.5 285.5,135C 290.645,138.597 290.645,141.93 285.5,145C 275.385,148.891 265.385,153.057 255.5,157.5C 254.336,151.193 254.169,144.859 255,138.5C 256.397,136.93 257.897,135.596 259.5,134.5 Z"/></g>
<g><path style="opacity:0.749" fill="#1c1715" d="M 112.5,65.5 C 115.08,67.2688 116.747,69.2688 117.5,71.5C 118.425,70.3595 119.259,70.3595 120,71.5C 120.667,70.1667 121.667,69.1667 123,68.5C 125.069,69.2638 127.236,69.7638 129.5,70C 127.715,71.5929 127.548,73.0929 129,74.5C 130.699,73.5939 132.533,73.2606 134.5,73.5C 134.475,77.6578 136.308,79.3244 140,78.5C 142.455,80.4282 142.622,82.2615 140.5,84C 142.44,85.2074 144.273,85.374 146,84.5C 146.944,85.263 147.444,86.263 147.5,87.5C 144.497,91.68 141.664,96.0134 139,100.5C 137.77,102.02 136.603,102.853 135.5,103C 135.777,105.896 137.444,108.396 140.5,110.5C 143.052,109.56 143.886,110.56 143,113.5C 140.925,116.533 138.258,118.867 135,120.5C 130.939,119.777 126.939,119.444 123,119.5C 120.679,119.909 118.513,120.743 116.5,122C 117.061,123.566 116.394,124.899 114.5,126C 115.833,127.667 115.833,129.333 114.5,131C 117.668,130.997 120.835,130.83 124,130.5C 128.203,132.676 132.703,133.842 137.5,134C 140.027,138.367 142.527,142.2 145,145.5C 146.918,148.402 146.751,151.069 144.5,153.5C 145.5,154.333 146.5,155.167 147.5,156C 137.236,156.821 127.07,157.987 117,159.5C 115.853,158.542 114.853,158.875 114,160.5C 112.667,159.167 111.333,159.167 110,160.5C 108.745,159.789 107.579,158.956 106.5,158C 97.1134,157.418 87.78,157.418 78.5,158C 77.8333,157.667 77.1667,157.333 76.5,157C 77.2461,154.907 77.5795,152.907 77.5,151C 76.8333,150.667 76.1667,150.333 75.5,150C 76.8932,148.829 77.7265,147.329 78,145.5C 79.5,144.333 81,143.167 82.5,142C 82.1667,141.667 81.8333,141.333 81.5,141C 83.8199,138.529 86.1532,136.029 88.5,133.5C 95.2461,131.966 101.413,131.633 107,132.5C 107.246,128.395 107.746,124.395 108.5,120.5C 106.51,119.502 104.51,118.502 102.5,117.5C 101.28,118.711 100.113,118.711 99,117.5C 92.0691,120.582 86.2358,118.582 81.5,111.5C 83.6044,109.418 85.9378,106.918 88.5,104C 87.8742,103.25 87.3742,102.416 87,101.5C 85.8525,102.458 84.8525,102.125 84,100.5C 83.2935,98.9194 82.4601,97.4194 81.5,96C 81.8333,95.6667 82.1667,95.3333 82.5,95C 80.5055,92.1726 78.1722,89.6726 75.5,87.5C 76.4803,86.0186 77.647,84.6853 79,83.5C 80.3876,84.5536 81.8876,84.7203 83.5,84C 82.1667,83.3333 82.1667,82.6667 83.5,82C 82.5,81.1667 81.5,80.3333 80.5,79.5C 82.9444,76.7287 85.4444,76.3954 88,78.5C 89.9338,76.5812 89.7671,75.0812 87.5,74C 88.4162,73.6258 89.2496,73.1258 90,72.5C 91.2504,73.5733 92.5838,73.5733 94,72.5C 95.2613,72.7591 96.2613,73.4258 97,74.5C 98.4055,72.6362 98.9055,70.8029 98.5,69C 99.5,68.5 100.5,68 101.5,67.5C 103.543,68.4405 105.543,69.4405 107.5,70.5C 109.393,69.0366 111.059,67.3699 112.5,65.5 Z M 136.5,112.5 C 134.43,110.036 132.596,107.369 131,104.5C 128.547,104.059 126.047,104.559 123.5,106C 125.394,107.079 125.727,108.413 124.5,110C 125.931,110.465 127.097,111.299 128,112.5C 129.016,111.366 129.683,111.699 130,113.5C 132.116,113.571 134.283,113.238 136.5,112.5 Z M 94.5,103.5 C 92.6452,105.033 90.8119,106.7 89,108.5C 88.4092,109.483 88.7425,110.15 90,110.5C 92.1771,109.477 94.3438,109.31 96.5,110C 97.6651,108.916 98.9984,108.083 100.5,107.5C 101.386,106.675 101.719,105.675 101.5,104.5C 99.0504,104.702 96.717,104.369 94.5,103.5 Z M 110.5,101.5 C 109.64,103.614 107.973,104.78 105.5,105C 106.634,106.016 106.301,106.683 104.5,107C 105.833,108 105.833,109 104.5,110C 107.092,112.457 109.592,112.624 112,110.5C 114.387,111.913 116.72,112.58 119,112.5C 119.707,110.919 120.54,109.419 121.5,108C 118.708,104.274 115.042,102.107 110.5,101.5 Z M 135.5,97.5 C 134.761,97.369 134.094,97.5357 133.5,98C 134.822,100.168 135.489,100.001 135.5,97.5 Z M 91.5,94.5 C 91.5173,96.0281 92.184,96.5281 93.5,96C 92.9558,95.2828 92.2891,94.7828 91.5,94.5 Z M 85.5,92.5 C 84.8105,94.8312 85.6439,96.8312 88,98.5C 88.3619,96.0207 87.5286,94.0207 85.5,92.5 Z M 139.5,90.5 C 139.539,93.089 138.539,95.089 136.5,96.5C 136.389,95.8826 136.056,95.3826 135.5,95C 136.92,93.5084 138.254,92.0084 139.5,90.5 Z M 122.5,90.5 C 122.768,92.099 122.434,93.4324 121.5,94.5C 120.557,92.9988 120.891,91.6654 122.5,90.5 Z M 85.5,92.5 C 85.4717,89.6578 84.1383,88.4912 81.5,89C 82.7051,90.3756 84.0384,91.5423 85.5,92.5 Z M 134.5,83.5 C 134.489,85.0174 133.823,86.1841 132.5,87C 133.112,88.3033 133.446,89.4699 133.5,90.5C 135.038,88.11 135.371,85.7767 134.5,83.5 Z M 86.5,83.5 C 88.4435,84.0783 88.7768,85.0783 87.5,86.5C 89.0261,89.033 90.0261,88.6997 90.5,85.5C 89.6954,83.0906 88.3621,82.424 86.5,83.5 Z M 129.5,79.5 C 128.522,79.811 127.855,80.4777 127.5,81.5C 128.213,83.7759 128.713,86.1093 129,88.5C 130.08,85.3855 130.246,82.3855 129.5,79.5 Z M 94.5,78.5 C 95.8799,78.9623 96.5466,79.9623 96.5,81.5C 95.2476,86.4201 95.9142,91.0868 98.5,95.5C 96.7537,93.5809 95.0871,91.4143 93.5,89C 94.3822,85.5592 94.7155,82.0592 94.5,78.5 Z M 94.5,78.5 C 94.2172,77.7109 93.7172,77.0442 93,76.5C 92.4719,77.816 92.9719,78.4827 94.5,78.5 Z M 122.5,90.5 C 123.093,84.9161 123.26,79.2494 123,73.5C 121.764,74.3992 120.93,75.5659 120.5,77C 121.152,80.9474 121.819,85.4474 122.5,90.5 Z M 103.5,93.5 C 103.541,89.6654 103.541,85.832 103.5,82C 104.308,79.9124 105.308,77.9124 106.5,76C 105.421,75.044 104.255,74.2106 103,73.5C 102.016,77.764 100.849,81.9307 99.5,86C 100.372,88.8165 101.706,91.3165 103.5,93.5 Z M 112.5,72.5 C 113.496,72.4142 114.329,72.7476 115,73.5C 115.303,75.8884 116.137,78.0551 117.5,80C 117.025,81.9606 117.025,84.1273 117.5,86.5C 117.114,90.1016 116.614,93.4349 116,96.5C 114.774,98.5477 113.274,98.881 111.5,97.5C 107.54,92.7228 106.874,87.2228 109.5,81C 109.152,78.9455 109.819,76.9455 111.5,75C 111.167,74.6667 110.833,74.3333 110.5,74C 111.416,73.7216 112.082,73.2216 112.5,72.5 Z M 136.5,140.5 C 137.658,139.05 137.158,138.05 135,137.5C 134.275,139.157 134.775,140.157 136.5,140.5 Z M 89.5,138.5 C 89.0433,140.747 88.0433,142.747 86.5,144.5C 86.8627,145.183 87.1961,145.85 87.5,146.5C 85.4004,146.477 83.5671,147.144 82,148.5C 80.282,147.969 80.1153,147.302 81.5,146.5C 83.2701,145.236 84.9368,143.736 86.5,142C 86.1667,141.667 85.8333,141.333 85.5,141C 86.7356,139.915 88.0689,139.082 89.5,138.5 Z M 113.5,139.5 C 114.165,141.698 114.832,144.031 115.5,146.5C 116.5,146 117.5,145.5 118.5,145C 116.083,143.856 115.416,142.19 116.5,140C 115.497,138.454 114.497,138.287 113.5,139.5 Z M 108.5,140.5 C 108.643,142.262 108.309,143.929 107.5,145.5C 108.325,146.386 109.325,146.719 110.5,146.5C 110.405,144.214 109.738,142.214 108.5,140.5 Z M 136.5,140.5 C 136.879,141.806 137.212,143.139 137.5,144.5C 136.271,145.281 134.938,145.781 133.5,146C 136.497,147.081 139.497,147.747 142.5,148C 140.349,145.481 138.349,142.981 136.5,140.5 Z M 122.5,143.5 C 122.517,145.028 123.184,145.528 124.5,145C 123.956,144.283 123.289,143.783 122.5,143.5 Z M 111.5,152.5 C 111.196,153.15 110.863,153.817 110.5,154.5C 111.833,155.833 113.167,155.833 114.5,154.5C 113.643,153.575 112.643,152.908 111.5,152.5 Z"/></g>
<g><path style="opacity:0.695" fill="#1b1816" d="M 188.5,127.5 C 191.088,129.941 191.088,132.441 188.5,135C 189.87,138.007 188.87,140.007 185.5,141C 188.096,142.797 187.763,144.131 184.5,145C 187.118,146.744 186.785,147.911 183.5,148.5C 185.655,151.46 184.655,153.293 180.5,154C 180.833,155 181.167,156 181.5,157C 179.983,158.685 178.316,160.185 176.5,161.5C 177.234,164.568 176.234,165.068 173.5,163C 173.833,162.667 174.167,162.333 174.5,162C 170.457,159.296 170.791,156.963 175.5,155C 175.745,153.089 175.745,151.089 175.5,149C 177.763,145.804 179.763,142.47 181.5,139C 180.191,137.249 180.525,135.749 182.5,134.5C 180.943,131.727 181.443,129.393 184,127.5C 185.299,127.966 186.799,127.966 188.5,127.5 Z"/></g>
<g><path style="opacity:0.903" fill="#1a1613" d="M 106.5,167.5 C 112.117,167.278 117.617,167.945 123,169.5C 126.005,168.118 128.672,168.452 131,170.5C 134.168,169.32 137.334,169.654 140.5,171.5C 141.086,171.291 141.586,170.957 142,170.5C 146.301,171.858 150.467,173.525 154.5,175.5C 156.263,175.694 158.097,175.694 160,175.5C 163.807,177.318 167.474,179.318 171,181.5C 171.333,181.167 171.667,180.833 172,180.5C 172.309,181.766 172.809,182.933 173.5,184C 171.717,185.067 171.217,186.567 172,188.5C 175.59,188.942 179.09,191.108 182.5,195C 181.386,196.57 180.053,197.903 178.5,199C 178.833,199.333 179.167,199.667 179.5,200C 176.914,205.23 174.247,209.896 171.5,214C 168.975,214.896 166.808,214.396 165,212.5C 163.984,213.634 163.317,213.301 163,211.5C 161.667,211.5 160.333,211.5 159,211.5C 157.324,210.939 155.991,209.939 155,208.5C 152.711,209.022 150.544,208.355 148.5,206.5C 146.678,207.429 145.345,206.762 144.5,204.5C 144.015,202.223 144.681,200.056 146.5,198C 141.838,196.001 137.338,194.501 133,193.5C 131.856,193.911 130.689,194.244 129.5,194.5C 127.423,193.108 125.089,192.442 122.5,192.5C 115.335,193.808 108.168,193.808 101,192.5C 93.8234,192.54 86.8234,193.874 80,196.5C 77.2681,198.244 77.1014,200.411 79.5,203C 80.0606,204.566 79.3939,205.899 77.5,207C 76.451,207.492 75.451,207.326 74.5,206.5C 67.2141,209.551 60.5474,212.218 54.5,214.5C 52.8839,213.885 51.5505,212.885 50.5,211.5C 46.7964,206.121 44.1297,200.621 42.5,195C 42.7912,192.141 44.4579,190.808 47.5,191C 49.4032,189.553 51.0699,187.886 52.5,186C 50.8934,184.951 50.2267,183.451 50.5,181.5C 54.8704,179.319 59.3704,177.319 64,175.5C 65.4299,175.306 66.9299,175.306 68.5,175.5C 72.6619,173.463 76.9952,171.796 81.5,170.5C 83.5979,171.484 85.5979,171.151 87.5,169.5C 91.5124,168.824 95.6791,168.824 100,169.5C 102.484,169.503 104.651,168.837 106.5,167.5 Z M 130.5,175.5 C 131.552,177.655 130.886,177.988 128.5,176.5C 127.5,177.5 126.5,178.5 125.5,179.5C 126.711,180.72 126.711,181.887 125.5,183C 126.822,185.689 128.655,186.189 131,184.5C 132.365,184.844 133.532,185.511 134.5,186.5C 135.281,185.271 135.781,183.938 136,182.5C 137.789,186.474 140.289,187.641 143.5,186C 144.167,187.333 144.833,188.667 145.5,190C 142.432,190.781 139.432,190.281 136.5,188.5C 133.449,189.922 130.615,189.589 128,187.5C 127.127,187.735 126.293,188.069 125.5,188.5C 125.594,187.028 124.594,185.862 122.5,185C 123.167,182.667 123.833,180.333 124.5,178C 120.267,175.982 115.767,175.149 111,175.5C 106.492,175.11 102.325,175.943 98.5,178C 100.394,179.079 100.727,180.413 99.5,182C 100.529,183.698 102.029,184.532 104,184.5C 109.263,184.006 114.263,183.673 119,183.5C 119.833,185.667 121.333,187.167 123.5,188C 115.176,187.453 106.843,187.453 98.5,188C 98.8333,187.667 99.1667,187.333 99.5,187C 97.981,185.649 96.6477,184.149 95.5,182.5C 97.1189,180.012 96.4522,178.012 93.5,176.5C 87.8373,177.491 82.1706,179.158 76.5,181.5C 75.1054,180.185 74.1054,180.519 73.5,182.5C 74.9459,184.618 75.6126,186.951 75.5,189.5C 78.3356,189.202 78.8356,189.869 77,191.5C 76.6667,191.167 76.3333,190.833 76,190.5C 71.5282,192.289 67.3615,193.955 63.5,195.5C 61.4615,194.723 60.7948,193.557 61.5,192C 59.7905,190.084 58.4572,187.918 57.5,185.5C 62.6893,181.987 67.6893,179.654 72.5,178.5C 74.306,179.859 75.806,179.525 77,177.5C 78.7785,178.479 80.4452,178.146 82,176.5C 82.414,176.957 82.914,177.291 83.5,177.5C 88.8578,175.308 94.1912,173.975 99.5,173.5C 107.5,174.833 115.5,174.833 123.5,173.5C 125.841,174.182 128.174,174.849 130.5,175.5 Z M 135.5,176.5 C 138.319,177.702 140.819,177.702 143,176.5C 143.667,177.167 144.333,177.833 145,178.5C 146.789,178.623 148.622,178.623 150.5,178.5C 151.705,180.138 153.038,180.471 154.5,179.5C 155.197,181.385 156.197,181.718 157.5,180.5C 159.39,182.578 161.724,183.911 164.5,184.5C 164.833,185 165.167,185.5 165.5,186C 163.681,189.756 162.181,193.256 161,196.5C 160.676,194.431 159.842,194.098 158.5,195.5C 157.572,193.665 156.406,193.332 155,194.5C 153.556,192.845 151.722,192.178 149.5,192.5C 149.374,190.8 148.707,189.3 147.5,188C 150.357,185.84 150.857,183.34 149,180.5C 148.586,180.957 148.086,181.291 147.5,181.5C 144.072,179.775 140.405,178.608 136.5,178C 135.944,177.617 135.611,177.117 135.5,176.5 Z M 80.5,189.5 C 81.1593,186.592 81.9926,186.258 83,188.5C 84.1545,187.257 85.4878,186.257 87,185.5C 87.3333,186.167 87.6667,186.833 88,187.5C 89.5122,186.743 90.8455,185.743 92,184.5C 93.0975,185.967 94.5975,186.801 96.5,187C 94.3822,187.635 92.3822,188.469 90.5,189.5C 87.1035,189.32 83.7702,189.32 80.5,189.5 Z"/></g>
<g><path style="opacity:0.778" fill="#363334" d="M 415.5,190.5 C 420.167,190.5 424.833,190.5 429.5,190.5C 429.5,191.5 429.5,192.5 429.5,193.5C 425.774,193.177 422.107,193.511 418.5,194.5C 417.754,195.736 417.421,197.07 417.5,198.5C 420.898,198.18 424.232,198.513 427.5,199.5C 423.893,200.489 420.226,200.823 416.5,200.5C 416.739,202.467 416.406,204.301 415.5,206C 419.152,206.499 422.818,206.665 426.5,206.5C 426.5,207.5 426.5,208.5 426.5,209.5C 421.489,209.666 416.489,209.499 411.5,209C 413.149,202.924 414.482,196.757 415.5,190.5 Z"/></g>
<g><path style="opacity:0.681" fill="#363334" d="M 460.5,190.5 C 462.355,190.272 463.188,190.939 463,192.5C 459.877,194.098 459.044,193.431 460.5,190.5 Z"/></g>
<g><path style="opacity:0.68" fill="#353233" d="M 516.5,190.5 C 517.873,190.343 519.207,190.51 520.5,191C 519.692,192.706 518.359,193.539 516.5,193.5C 516.5,192.5 516.5,191.5 516.5,190.5 Z"/></g>
<g><path style="opacity:0.774" fill="#363334" d="M 578.5,190.5 C 579.5,190.5 580.5,190.5 581.5,190.5C 581.34,192.199 581.506,193.866 582,195.5C 585.974,194.245 588.474,195.745 589.5,200C 587.139,209.775 582.472,211.942 575.5,206.5C 576.759,201.205 577.759,195.872 578.5,190.5 Z M 582.5,197.5 C 583.496,197.414 584.329,197.748 585,198.5C 586.822,203.829 584.989,206.496 579.5,206.5C 578.924,202.888 579.924,199.888 582.5,197.5 Z"/></g>
<g><path style="opacity:0.77" fill="#363334" d="M 607.5,191.5 C 608.5,191.5 609.5,191.5 610.5,191.5C 610.67,192.822 610.337,193.989 609.5,195C 612.926,196.238 614.592,195.071 614.5,191.5C 615.5,191.5 616.5,191.5 617.5,191.5C 617.67,192.822 617.337,193.989 616.5,195C 617.308,195.308 617.975,195.808 618.5,196.5C 616.187,199.02 614.854,202.02 614.5,205.5C 615.853,206.524 616.52,207.857 616.5,209.5C 614.833,209.5 613.167,209.5 611.5,209.5C 611.469,205.516 612.136,201.683 613.5,198C 612.056,197.219 610.723,197.386 609.5,198.5C 608.757,200.638 608.09,202.804 607.5,205C 608.707,206.3 609.374,207.8 609.5,209.5C 607.833,209.5 606.167,209.5 604.5,209.5C 604.469,205.516 605.136,201.683 606.5,198C 605.692,197.692 605.025,197.192 604.5,196.5C 606.278,195.274 607.278,193.607 607.5,191.5 Z"/></g>
<g><path style="opacity:0.786" fill="#363334" d="M 651.5,191.5 C 654.276,191.089 654.943,191.922 653.5,194C 656.457,196.184 656.123,197.351 652.5,197.5C 651.485,201.531 651.485,205.531 652.5,209.5C 651.167,209.5 649.833,209.5 648.5,209.5C 648.936,205.089 648.936,200.756 648.5,196.5C 649.994,195.095 650.994,193.429 651.5,191.5 Z"/></g>
<g><path style="opacity:0.778" fill="#363334" d="M 436.5,194.5 C 440.134,194.157 441.801,195.823 441.5,199.5C 441.194,202.532 440.694,205.532 440,208.5C 438.951,209.517 437.784,209.684 436.5,209C 437.864,205.317 438.531,201.484 438.5,197.5C 436.61,197.297 435.11,197.963 434,199.5C 432.722,202.721 431.889,206.054 431.5,209.5C 430.5,209.5 429.5,209.5 428.5,209.5C 429.296,204.853 429.963,200.186 430.5,195.5C 432.735,195.795 434.735,195.461 436.5,194.5 Z"/></g>
<g><path style="opacity:0.786" fill="#363334" d="M 448.5,194.5 C 451.127,195.092 453.794,195.425 456.5,195.5C 456.343,201.968 454.676,207.968 451.5,213.5C 448.897,214.562 446.23,214.728 443.5,214C 441.128,212.529 441.128,211.363 443.5,210.5C 446.059,213.256 448.392,213.089 450.5,210C 445.846,210.527 443.513,208.527 443.5,204C 443.228,199.706 444.895,196.54 448.5,194.5 Z M 449.5,197.5 C 450.496,197.414 451.329,197.748 452,198.5C 453.822,203.829 451.989,206.496 446.5,206.5C 445.925,202.845 446.925,199.845 449.5,197.5 Z"/></g>
<g><path style="opacity:0.767" fill="#353334" d="M 470.5,194.5 C 472.39,194.297 473.89,194.963 475,196.5C 476.022,201.398 475.022,205.732 472,209.5C 471.5,209.167 471,208.833 470.5,208.5C 471.292,205.874 471.959,203.208 472.5,200.5C 471.079,196.724 469.245,196.724 467,200.5C 466.304,203.478 465.804,206.478 465.5,209.5C 464.5,209.5 463.5,209.5 462.5,209.5C 463.037,204.814 463.704,200.147 464.5,195.5C 466.735,195.795 468.735,195.461 470.5,194.5 Z"/></g>
<g><path style="opacity:0.756" fill="#353334" d="M 483.5,194.5 C 488.994,194.93 490.994,197.93 489.5,203.5C 486.102,203.18 482.768,203.513 479.5,204.5C 480,205.881 481,206.547 482.5,206.5C 489.497,203.266 490.497,204.099 485.5,209C 476.381,209.621 474.215,205.788 479,197.5C 480.409,196.219 481.909,195.219 483.5,194.5 Z M 483.5,197.5 C 485.196,197.685 486.529,198.519 487.5,200C 485.421,200.808 483.421,200.641 481.5,199.5C 482.243,198.818 482.909,198.151 483.5,197.5 Z"/></g>
<g><path style="opacity:0.758" fill="#353334" d="M 497.5,194.5 C 502.899,194.76 504.899,197.426 503.5,202.5C 500.215,203.324 496.882,203.824 493.5,204C 494.09,205.299 495.09,206.132 496.5,206.5C 498.59,204.894 500.924,204.394 503.5,205C 501.323,209.041 497.99,210.374 493.5,209C 490.92,207.519 490.087,205.352 491,202.5C 491.612,198.403 493.779,195.736 497.5,194.5 Z M 497.5,197.5 C 499.196,197.685 500.529,198.519 501.5,200C 499.421,200.808 497.421,200.641 495.5,199.5C 496.243,198.818 496.909,198.151 497.5,197.5 Z"/></g>
<g><path style="opacity:0.757" fill="#363334" d="M 512.5,194.5 C 514.225,194.843 514.725,195.843 514,197.5C 512.667,198.167 511.333,198.833 510,199.5C 509.333,202.167 508.667,204.833 508,207.5C 507.174,209.405 506.007,209.739 504.5,208.5C 505.523,204.887 506.356,201.221 507,197.5C 508.649,196.047 510.482,195.047 512.5,194.5 Z"/></g>
<g><path style="opacity:0.771" fill="#363334" d="M 526.5,194.5 C 528.722,194.178 530.556,194.845 532,196.5C 532.094,200.874 531.594,205.208 530.5,209.5C 529.5,209.5 528.5,209.5 527.5,209.5C 527.768,206.26 528.434,203.094 529.5,200C 528.291,196.899 526.625,196.732 524.5,199.5C 523.225,202.373 522.392,205.373 522,208.5C 520.817,209.731 519.651,209.731 518.5,208.5C 519.883,204.25 520.883,199.917 521.5,195.5C 523.415,195.784 525.081,195.451 526.5,194.5 Z"/></g>
<g><path style="opacity:0.793" fill="#363334" d="M 539.5,194.5 C 542.127,195.092 544.794,195.425 547.5,195.5C 546.653,200.889 545.486,206.223 544,211.5C 541.091,214.394 537.591,215.227 533.5,214C 532.663,212.989 532.33,211.822 532.5,210.5C 534.484,210.383 536.15,211.05 537.5,212.5C 542.576,210.042 541.909,208.875 535.5,209C 532.111,202.918 533.445,198.085 539.5,194.5 Z M 539.5,197.5 C 541.948,197.085 543.281,198.085 543.5,200.5C 543.101,202.197 542.601,203.863 542,205.5C 539.214,207.184 537.38,206.517 536.5,203.5C 536.984,201.199 537.984,199.199 539.5,197.5 Z"/></g>
<g><path style="opacity:0.761" fill="#353334" d="M 558.5,200.5 C 557.448,200.649 556.448,200.483 555.5,200C 558.138,194.587 561.971,193.42 567,196.5C 567.278,199.778 566.778,202.945 565.5,206C 566.337,207.011 566.67,208.178 566.5,209.5C 562.729,209.304 558.896,208.971 555,208.5C 553.436,206.63 553.436,204.63 555,202.5C 556.302,201.915 557.469,201.249 558.5,200.5 Z M 558.5,200.5 C 559.921,197.412 561.921,196.912 564.5,199C 562.75,200.319 560.75,200.819 558.5,200.5 Z M 562.5,202.5 C 563.645,203.793 563.311,204.959 561.5,206C 560.056,206.781 558.723,206.614 557.5,205.5C 558.947,204.065 560.614,203.065 562.5,202.5 Z"/></g>
<g><path style="opacity:0.761" fill="#363334" d="M 596.5,194.5 C 601.899,194.76 603.899,197.426 602.5,202.5C 599.215,203.324 595.882,203.824 592.5,204C 593.09,205.299 594.09,206.132 595.5,206.5C 597.59,204.894 599.924,204.394 602.5,205C 600.323,209.041 596.99,210.374 592.5,209C 589.92,207.519 589.087,205.352 590,202.5C 590.612,198.403 592.779,195.736 596.5,194.5 Z M 596.5,197.5 C 598.196,197.685 599.529,198.519 600.5,200C 598.421,200.808 596.421,200.641 594.5,199.5C 595.243,198.818 595.909,198.151 596.5,197.5 Z"/></g>
<g><path style="opacity:0.725" fill="#353334" d="M 624.5,194.5 C 629.863,194.688 632.03,197.355 631,202.5C 627.943,203.451 624.777,203.784 621.5,203.5C 621.5,204.5 621.5,205.5 621.5,206.5C 624.716,206.419 627.716,205.919 630.5,205C 627.917,209.327 624.251,210.494 619.5,208.5C 618.756,207.009 618.09,205.509 617.5,204C 618.038,199.392 620.371,196.226 624.5,194.5 Z M 624.5,197.5 C 626.359,197.461 627.692,198.294 628.5,200C 626.5,200.667 624.5,200.667 622.5,200C 623.381,199.292 624.047,198.458 624.5,197.5 Z"/></g>
<g><path style="opacity:0.776" fill="#363334" d="M 639.5,194.5 C 641.225,194.843 641.725,195.843 641,197.5C 636.96,199.879 634.96,203.546 635,208.5C 633.817,209.731 632.651,209.731 631.5,208.5C 632.883,204.25 633.883,199.917 634.5,195.5C 636.415,195.784 638.081,195.451 639.5,194.5 Z"/></g>
<g><path style="opacity:0.759" fill="#363334" d="M 660.5,194.5 C 665.028,194.091 667.694,196.091 668.5,200.5C 667.312,207.543 663.312,210.376 656.5,209C 653.108,202.849 654.441,198.016 660.5,194.5 Z M 660.5,197.5 C 663.243,197.077 664.576,198.244 664.5,201C 664.534,205.309 662.534,206.976 658.5,206C 657.186,202.767 657.853,199.933 660.5,197.5 Z"/></g>
<g><path style="opacity:0.782" fill="#363334" d="M 676.5,194.5 C 678.39,194.297 679.89,194.963 681,196.5C 685.258,193.306 687.758,194.306 688.5,199.5C 688.194,202.532 687.694,205.532 687,208.5C 685.817,209.731 684.651,209.731 683.5,208.5C 685.033,204.871 685.367,201.204 684.5,197.5C 683.328,197.919 682.328,198.585 681.5,199.5C 680.198,202.708 679.531,206.041 679.5,209.5C 678.127,209.657 676.793,209.49 675.5,209C 676.374,205.634 677.374,202.3 678.5,199C 675.843,197.233 674.01,198.066 673,201.5C 672.178,204.117 671.678,206.784 671.5,209.5C 670.5,209.5 669.5,209.5 668.5,209.5C 669.167,204.833 669.833,200.167 670.5,195.5C 672.735,195.795 674.735,195.461 676.5,194.5 Z"/></g>
<g><path style="opacity:0.779" fill="#353334" d="M 696.5,194.5 C 701.757,194.688 703.924,197.355 703,202.5C 700.359,209.983 696.026,211.317 690,206.5C 689.328,200.836 691.495,196.836 696.5,194.5 Z M 696.5,197.5 C 700.691,198.558 701.524,200.891 699,204.5C 696.329,207.414 694.163,207.081 692.5,203.5C 693.361,201.089 694.694,199.089 696.5,197.5 Z"/></g>
<g><path style="opacity:0.768" fill="#363334" d="M 711.5,194.5 C 713.225,194.843 713.725,195.843 713,197.5C 711.667,198.167 710.333,198.833 709,199.5C 708.333,202.167 707.667,204.833 707,207.5C 706.174,209.405 705.007,209.739 703.5,208.5C 704.523,204.887 705.356,201.221 706,197.5C 707.649,196.047 709.482,195.047 711.5,194.5 Z"/></g>
<g><path style="opacity:0.753" fill="#363334" d="M 719.5,194.5 C 720.675,194.281 721.675,194.614 722.5,195.5C 720.992,197.507 719.158,199.174 717,200.5C 716.304,203.478 715.804,206.478 715.5,209.5C 714.5,209.5 713.5,209.5 712.5,209.5C 713.037,204.814 713.704,200.147 714.5,195.5C 715.822,195.33 716.989,195.663 718,196.5C 718.717,195.956 719.217,195.289 719.5,194.5 Z"/></g>
<g><path style="opacity:0.776" fill="#363334" d="M 727.5,194.5 C 732.757,194.688 734.924,197.355 734,202.5C 731.359,209.983 727.026,211.317 721,206.5C 720.328,200.836 722.495,196.836 727.5,194.5 Z M 726.5,197.5 C 731.394,197.955 732.561,200.289 730,204.5C 727.329,207.414 725.163,207.081 723.5,203.5C 724.129,201.259 725.129,199.259 726.5,197.5 Z"/></g>
<g><path style="opacity:0.757" fill="#363334" d="M 459.5,195.5 C 460.675,195.281 461.675,195.614 462.5,196.5C 461.477,200.113 460.644,203.779 460,207.5C 459.29,208.973 458.124,209.64 456.5,209.5C 457.245,204.773 458.245,200.106 459.5,195.5 Z"/></g>
<g><path style="opacity:0.742" fill="#363334" d="M 515.5,195.5 C 516.873,195.343 518.207,195.51 519.5,196C 518.111,200.392 517.111,204.892 516.5,209.5C 515.5,209.5 514.5,209.5 513.5,209.5C 514.296,204.853 514.963,200.186 515.5,195.5 Z"/></g>
<g><path style="opacity:0.757" fill="#363334" d="M 735.5,195.5 C 736.5,195.5 737.5,195.5 738.5,195.5C 738.335,198.518 738.502,201.518 739,204.5C 739.892,201.716 741.058,199.05 742.5,196.5C 743.689,195.571 745.022,195.238 746.5,195.5C 745.802,205.694 747.135,206.028 750.5,196.5C 751.5,195.167 752.5,195.167 753.5,196.5C 751.5,200.5 749.5,204.5 747.5,208.5C 746.675,209.386 745.675,209.719 744.5,209.5C 744.067,206.834 743.567,204.168 743,201.5C 742.275,203.949 741.275,206.283 740,208.5C 738.989,209.337 737.822,209.67 736.5,209.5C 736.167,204.833 735.833,200.167 735.5,195.5 Z"/></g>
</svg>
