<?xml version="1.0" standalone="no"?>
<!DOCTYPE svg PUBLIC "-//W3C//DTD SVG 20010904//EN"
 "http://www.w3.org/TR/2001/REC-SVG-20010904/DTD/svg10.dtd">
<svg version="1.0" xmlns="http://www.w3.org/2000/svg"
 width="1305.000000pt" height="459.000000pt" viewBox="0 0 1305.000000 459.000000"
 preserveAspectRatio="xMidYMid meet">

<g transform="translate(0.000000,459.000000) scale(0.100000,-0.100000)"
fill="#000000" stroke="none">
<path d="M35 3026 l-25 -25 0 -1116 c0 -1091 0 -1115 19 -1134 29 -29 64 -33
304 -29 l219 3 24 28 24 28 0 318 0 319 228 5 c186 4 241 8 303 25 153 41 279
114 383 220 144 147 212 311 223 532 18 393 -216 716 -596 823 -72 20 -102 21
-578 25 l-503 3 -25 -25z m980 -567 c99 -51 151 -163 127 -278 -16 -76 -55
-129 -121 -163 -53 -28 -55 -28 -237 -28 l-184 0 0 251 0 251 183 -3 c173 -4
185 -5 232 -30z"/>
<path d="M11045 3025 l-25 -24 0 -367 c0 -356 -1 -366 -19 -353 -90 67 -137
93 -206 116 -71 24 -96 27 -225 27 -125 1 -155 -2 -220 -22 -267 -84 -456
-284 -547 -579 -25 -82 -27 -101 -27 -268 0 -167 2 -186 27 -268 90 -293 279
-495 542 -577 100 -32 276 -39 381 -15 99 22 164 51 234 104 l55 42 6 -37 c3
-19 16 -45 28 -57 21 -21 29 -22 247 -22 l226 0 24 28 24 28 0 1110 0 1110
-25 24 -24 25 -226 0 -226 0 -24 -25z m-265 -1131 c291 -81 325 -528 52 -661
-51 -25 -68 -27 -162 -28 -95 0 -110 3 -162 28 -80 39 -142 111 -168 194 -64
206 29 411 213 469 58 18 160 17 227 -2z"/>
<path d="M3678 2415 c-402 -76 -676 -396 -695 -812 -12 -265 62 -482 224 -654
111 -118 221 -184 389 -235 83 -26 101 -28 274 -28 173 0 191 2 275 28 140 43
238 99 325 186 82 82 150 195 150 249 0 57 -22 63 -252 59 l-205 -3 -60 -37
c-198 -123 -440 -65 -537 127 l-25 50 554 5 c650 6 592 -6 605 127 16 153 -22
368 -87 496 -112 222 -289 366 -533 434 -79 22 -305 26 -402 8z m330 -475 c74
-32 162 -135 162 -190 0 -7 -105 -10 -315 -10 -173 0 -315 2 -315 5 0 3 9 23
20 45 26 51 73 104 114 129 87 54 236 63 334 21z"/>
<path d="M5514 2415 c-242 -53 -443 -218 -553 -457 -52 -112 -71 -192 -78
-323 -9 -181 26 -334 110 -485 53 -95 205 -250 297 -303 225 -130 537 -135
741 -12 30 19 63 43 74 55 33 37 38 25 33 -85 -9 -159 -53 -236 -168 -289 -37
-17 -65 -21 -155 -21 -93 0 -118 4 -160 23 -60 27 -97 61 -131 119 -33 57 -60
63 -279 63 -266 0 -289 -12 -268 -133 63 -358 424 -579 902 -554 151 8 263 36
386 97 168 82 267 177 339 325 74 149 70 95 73 1040 3 640 1 855 -8 872 -19
36 -61 43 -259 43 -243 0 -270 -9 -270 -95 l0 -35 -52 41 c-108 86 -250 130
-415 128 -54 0 -126 -7 -159 -14z m371 -500 c114 -30 207 -115 237 -219 7 -23
12 -76 12 -118 -1 -135 -68 -238 -194 -297 -48 -23 -67 -26 -160 -26 -94 1
-111 3 -161 28 -66 32 -132 99 -160 162 -29 67 -35 162 -15 238 50 183 241
283 441 232z"/>
<path d="M8715 2423 c-71 -10 -156 -37 -235 -75 -152 -73 -272 -217 -315 -378
-22 -81 -19 -122 8 -148 22 -21 31 -22 245 -22 245 0 236 -2 278 69 29 49 91
74 169 69 119 -7 155 -56 163 -219 2 -60 2 -109 -2 -109 -4 0 -34 14 -67 31
-95 48 -195 69 -324 69 -195 0 -320 -45 -431 -155 -97 -96 -136 -200 -136
-360 0 -160 39 -263 137 -361 104 -105 237 -154 414 -154 156 0 275 39 360
115 21 19 41 35 45 35 3 0 6 -13 6 -30 0 -37 29 -67 73 -75 19 -4 118 -5 220
-3 179 3 187 4 209 26 l23 23 0 557 c0 612 0 611 -64 747 -80 171 -250 295
-463 339 -71 15 -237 19 -313 9z m238 -1106 c87 -51 98 -159 23 -225 -89 -78
-286 -62 -339 28 -21 35 -22 112 -2 150 28 54 96 81 196 77 61 -3 85 -9 122
-30z"/>
<path d="M2745 2396 c-110 -35 -193 -104 -244 -203 l-30 -58 -1 97 c0 88 -2
100 -24 125 l-24 28 -227 0 -227 0 -24 -28 -24 -28 0 -769 c0 -564 3 -776 12
-795 18 -40 62 -47 285 -43 195 3 203 4 225 26 23 22 23 23 28 420 7 447 7
452 82 537 56 63 120 94 226 106 51 7 94 17 105 26 15 15 17 41 17 275 0 245
-1 259 -20 278 -23 23 -74 25 -135 6z"/>
<path d="M7803 2386 c-101 -38 -175 -103 -221 -196 l-27 -55 -5 108 c-7 153
-1 150 -303 145 -189 -3 -197 -4 -219 -26 l-23 -23 -3 -779 -2 -778 24 -29 24
-28 198 -3 c218 -4 256 0 285 29 18 18 19 36 19 372 0 194 5 381 10 416 26
158 126 251 292 272 40 5 83 11 95 14 37 9 45 64 41 315 -3 208 -5 230 -22
249 -25 28 -82 27 -163 -3z"/>
</g>
</svg>
